<?xml version="1.0" encoding="UTF-8"?>
<svg xmlns="http://www.w3.org/2000/svg" xmlns:xlink="http://www.w3.org/1999/xlink" width="64px" height="64px" viewBox="0 0 64 64" version="1.1">
<g id="surface1">
<path style=" stroke:none;fill-rule:nonzero;fill:rgb(15.294118%,36.862746%,56.862748%);fill-opacity:1;" d="M 7.304688 8.859375 C 7.34375 8.859375 7.386719 8.859375 7.429688 8.859375 C 7.5625 8.859375 7.699219 8.863281 7.832031 8.863281 C 7.929688 8.863281 8.023438 8.863281 8.121094 8.863281 C 8.414062 8.867188 8.707031 8.871094 9 8.875 C 9.042969 8.875 9.085938 8.875 9.128906 8.875 C 14.683594 8.957031 20.269531 9.679688 28.9375 13.8125 C 28.980469 13.839844 29.019531 13.867188 29.0625 13.894531 C 29.453125 14.15625 29.828125 14.429688 30.1875 14.730469 C 30.335938 14.828125 30.449219 14.859375 30.625 14.875 C 30.859375 14.753906 31.019531 14.609375 31.203125 14.417969 C 31.417969 14.199219 31.648438 14.011719 31.898438 13.828125 C 31.941406 13.796875 31.984375 13.765625 32.03125 13.730469 C 34.890625 11.636719 38.429688 10.238281 41.859375 9.40625 C 41.902344 9.394531 41.949219 9.382812 41.992188 9.375 C 42.90625 9.152344 42.90625 9.152344 43.3125 9.125 C 43.332031 9.144531 43.355469 9.167969 43.375 9.1875 C 43.402344 9.148438 43.433594 9.105469 43.460938 9.0625 C 43.707031 8.875 43.925781 8.902344 44.226562 8.90625 C 44.316406 8.90625 44.316406 8.90625 44.410156 8.90625 C 44.617188 8.90625 44.824219 8.90625 45.03125 8.90625 C 45.179688 8.90625 45.328125 8.90625 45.476562 8.90625 C 45.835938 8.90625 46.199219 8.90625 46.558594 8.90625 C 46.976562 8.910156 47.398438 8.910156 47.816406 8.910156 C 48.566406 8.910156 49.316406 8.910156 50.066406 8.910156 C 50.792969 8.914062 51.519531 8.914062 52.246094 8.914062 C 52.292969 8.914062 52.335938 8.914062 52.382812 8.914062 C 52.425781 8.914062 52.472656 8.914062 52.519531 8.914062 C 53.347656 8.914062 54.171875 8.914062 55 8.917969 C 55.292969 8.917969 55.585938 8.917969 55.878906 8.917969 C 56.273438 8.917969 56.667969 8.917969 57.0625 8.917969 C 57.207031 8.917969 57.351562 8.917969 57.496094 8.917969 C 57.691406 8.917969 57.890625 8.917969 58.085938 8.921875 C 58.175781 8.921875 58.175781 8.921875 58.261719 8.921875 C 58.316406 8.921875 58.367188 8.921875 58.421875 8.921875 C 58.46875 8.921875 58.511719 8.921875 58.558594 8.921875 C 58.777344 8.949219 58.90625 9.023438 59.046875 9.1875 C 59.160156 9.460938 59.152344 9.707031 59.148438 10 C 59.148438 10.0625 59.148438 10.128906 59.148438 10.191406 C 59.148438 10.40625 59.148438 10.617188 59.148438 10.832031 C 59.148438 10.984375 59.148438 11.136719 59.148438 11.289062 C 59.148438 11.660156 59.148438 12.03125 59.144531 12.402344 C 59.144531 12.835938 59.144531 13.269531 59.144531 13.699219 C 59.144531 14.472656 59.144531 15.242188 59.140625 16.015625 C 59.140625 16.761719 59.140625 17.511719 59.140625 18.261719 C 59.140625 18.304688 59.140625 18.351562 59.140625 18.398438 C 59.140625 18.492188 59.140625 18.585938 59.140625 18.679688 C 59.140625 18.746094 59.140625 18.746094 59.140625 18.816406 C 59.140625 18.863281 59.140625 18.910156 59.140625 18.957031 C 59.140625 19.667969 59.140625 20.382812 59.136719 21.097656 C 59.136719 21.355469 59.136719 21.613281 59.136719 21.871094 C 59.136719 22.320312 59.136719 22.769531 59.136719 23.21875 C 59.136719 23.367188 59.136719 23.515625 59.136719 23.664062 C 59.136719 23.867188 59.132812 24.070312 59.132812 24.273438 C 59.132812 24.363281 59.132812 24.363281 59.132812 24.453125 C 59.132812 24.507812 59.132812 24.5625 59.132812 24.617188 C 59.132812 24.6875 59.132812 24.6875 59.132812 24.761719 C 59.125 24.875 59.125 24.875 59.0625 25 C 58.871094 25.066406 58.871094 25.066406 58.625 25.0625 C 58.15625 24.761719 57.757812 24.265625 57.363281 23.871094 C 57.246094 23.753906 57.128906 23.636719 57.011719 23.519531 C 56.328125 22.835938 56.328125 22.835938 56.023438 22.472656 C 55.898438 22.332031 55.753906 22.21875 55.609375 22.097656 C 55.40625 21.917969 55.238281 21.707031 55.0625 21.5 C 55.042969 21.480469 55.019531 21.457031 55 21.4375 C 55 21.5 55 21.566406 55 21.628906 C 55 24.441406 54.996094 27.25 54.992188 30.0625 C 54.992188 30.101562 54.992188 30.144531 54.992188 30.191406 C 54.992188 31.113281 54.988281 32.039062 54.988281 32.960938 C 54.988281 33.414062 54.988281 33.867188 54.988281 34.320312 C 54.988281 34.367188 54.988281 34.410156 54.988281 34.457031 C 54.984375 35.921875 54.984375 37.382812 54.984375 38.84375 C 54.980469 40.347656 54.980469 41.851562 54.976562 43.351562 C 54.976562 43.5625 54.976562 43.777344 54.976562 43.988281 C 54.976562 44.050781 54.976562 44.050781 54.976562 44.113281 C 54.976562 44.746094 54.976562 45.378906 54.976562 46.007812 C 54.976562 46.726562 54.976562 47.441406 54.972656 48.160156 C 54.972656 48.527344 54.972656 48.894531 54.972656 49.257812 C 54.972656 49.59375 54.972656 49.929688 54.96875 50.265625 C 54.96875 50.386719 54.96875 50.507812 54.972656 50.628906 C 54.972656 50.792969 54.96875 50.957031 54.96875 51.121094 C 54.96875 51.171875 54.96875 51.21875 54.972656 51.265625 C 54.96875 51.484375 54.953125 51.601562 54.820312 51.777344 C 54.652344 51.902344 54.53125 51.917969 54.324219 51.941406 C 54.25 51.949219 54.175781 51.960938 54.097656 51.96875 C 53.976562 51.980469 53.976562 51.980469 53.851562 51.992188 C 53.765625 52.003906 53.679688 52.011719 53.59375 52.023438 C 53.359375 52.046875 53.125 52.074219 52.894531 52.097656 C 52.648438 52.125 52.402344 52.152344 52.15625 52.179688 C 50.976562 52.308594 49.796875 52.429688 48.617188 52.550781 C 48.484375 52.5625 48.351562 52.578125 48.214844 52.589844 C 48.125 52.601562 48.039062 52.609375 47.949219 52.621094 C 46.605469 52.757812 45.269531 52.898438 43.9375 53.125 C 43.859375 53.136719 43.78125 53.152344 43.703125 53.164062 C 41.289062 53.582031 38.984375 54.390625 36.75 55.375 C 36.675781 55.40625 36.675781 55.40625 36.597656 55.441406 C 35.367188 55.984375 34.199219 56.679688 33.089844 57.441406 C 33.027344 57.484375 33.027344 57.484375 32.964844 57.527344 C 32.566406 57.804688 32.179688 58.101562 31.796875 58.40625 C 31.753906 58.441406 31.707031 58.476562 31.660156 58.515625 C 31.621094 58.546875 31.582031 58.578125 31.539062 58.609375 C 31.335938 58.765625 31.191406 58.773438 30.9375 58.75 C 30.785156 58.679688 30.652344 58.609375 30.507812 58.523438 C 30.464844 58.5 30.421875 58.472656 30.378906 58.449219 C 30.230469 58.363281 30.085938 58.273438 29.9375 58.1875 C 29.699219 58.046875 29.457031 57.90625 29.21875 57.765625 C 29.15625 57.726562 29.09375 57.691406 29.027344 57.652344 C 28.390625 57.28125 27.746094 56.933594 27.097656 56.585938 C 26.964844 56.515625 26.832031 56.441406 26.699219 56.367188 C 23.824219 54.757812 20.523438 53.832031 17.3125 53.1875 C 17.265625 53.179688 17.222656 53.167969 17.175781 53.160156 C 14.304688 52.585938 11.378906 52.332031 8.46875 52.039062 C 8.421875 52.035156 8.375 52.03125 8.324219 52.023438 C 8.191406 52.011719 8.054688 52 7.917969 51.984375 C 7.855469 51.976562 7.855469 51.976562 7.789062 51.972656 C 7.488281 51.941406 7.1875 51.914062 6.882812 51.894531 C 6.699219 51.867188 6.578125 51.808594 6.4375 51.6875 C 6.378906 51.507812 6.367188 51.394531 6.367188 51.207031 C 6.367188 51.144531 6.367188 51.085938 6.367188 51.023438 C 6.367188 50.957031 6.367188 50.890625 6.367188 50.820312 C 6.367188 50.75 6.367188 50.675781 6.367188 50.605469 C 6.367188 50.40625 6.367188 50.207031 6.367188 50.007812 C 6.367188 49.792969 6.367188 49.574219 6.367188 49.359375 C 6.367188 48.980469 6.367188 48.601562 6.367188 48.222656 C 6.367188 47.660156 6.367188 47.097656 6.367188 46.53125 C 6.363281 45.46875 6.363281 44.402344 6.363281 43.339844 C 6.363281 42.515625 6.363281 41.695312 6.363281 40.875 C 6.363281 40.636719 6.363281 40.402344 6.363281 40.164062 C 6.363281 40.105469 6.363281 40.046875 6.363281 39.988281 C 6.363281 38.332031 6.363281 36.679688 6.363281 35.027344 C 6.363281 34.964844 6.363281 34.902344 6.363281 34.835938 C 6.363281 34.523438 6.363281 34.207031 6.363281 33.890625 C 6.363281 33.828125 6.363281 33.765625 6.363281 33.699219 C 6.363281 33.570312 6.363281 33.445312 6.363281 33.316406 C 6.363281 31.34375 6.363281 29.367188 6.363281 27.390625 C 6.359375 25.171875 6.359375 22.953125 6.359375 20.734375 C 6.359375 20.5 6.359375 20.261719 6.359375 20.027344 C 6.359375 19.96875 6.359375 19.910156 6.359375 19.851562 C 6.359375 18.910156 6.359375 17.972656 6.359375 17.035156 C 6.359375 16.09375 6.359375 15.152344 6.359375 14.210938 C 6.359375 13.648438 6.359375 13.089844 6.359375 12.527344 C 6.359375 12.15625 6.359375 11.78125 6.359375 11.40625 C 6.359375 11.191406 6.359375 10.980469 6.359375 10.765625 C 6.359375 10.539062 6.359375 10.308594 6.359375 10.078125 C 6.359375 10.011719 6.359375 9.945312 6.359375 9.875 C 6.363281 9.285156 6.363281 9.285156 6.5 9 C 6.765625 8.867188 7.011719 8.859375 7.304688 8.859375 Z M 47.5 14 C 47.5 14.125 47.5 14.246094 47.5 14.375 C 47.519531 14.375 47.542969 14.375 47.5625 14.375 C 47.5625 14.25 47.5625 14.128906 47.5625 14 C 47.542969 14 47.519531 14 47.5 14 Z M 53.1875 20.0625 C 53.1875 20.082031 53.1875 20.105469 53.1875 20.125 C 53.3125 20.125 53.433594 20.125 53.5625 20.125 C 53.5625 20.105469 53.5625 20.082031 53.5625 20.0625 C 53.4375 20.0625 53.316406 20.0625 53.1875 20.0625 Z M 48.4375 24.25 C 48.457031 24.292969 48.480469 24.332031 48.5 24.375 C 48.519531 24.332031 48.542969 24.292969 48.5625 24.25 C 48.519531 24.25 48.480469 24.25 48.4375 24.25 Z M 48.3125 24.375 C 48.332031 24.417969 48.355469 24.457031 48.375 24.5 C 48.394531 24.457031 48.417969 24.417969 48.4375 24.375 C 48.394531 24.375 48.355469 24.375 48.3125 24.375 Z M 30.8125 34 C 30.875 34.125 30.875 34.125 30.875 34.125 Z M 30.4375 34.8125 C 30.5 34.9375 30.5 34.9375 30.5 34.9375 Z M 30.3125 35.125 C 30.375 35.25 30.375 35.25 30.375 35.25 Z M 29.625 36.9375 C 29.6875 37.0625 29.6875 37.0625 29.6875 37.0625 Z M 29.4375 37.5625 C 29.5 37.6875 29.5 37.6875 29.5 37.6875 Z M 29.375 37.75 C 29.4375 37.875 29.4375 37.875 29.4375 37.875 Z M 29.3125 38 C 29.375 38.125 29.375 38.125 29.375 38.125 Z M 29.25 38.25 C 29.3125 38.375 29.3125 38.375 29.3125 38.375 Z M 29.1875 38.5 C 29.25 38.625 29.25 38.625 29.25 38.625 Z M 29.0625 39 C 29.125 39.125 29.125 39.125 29.125 39.125 Z M 29 39.3125 C 29.0625 39.4375 29.0625 39.4375 29.0625 39.4375 Z M 28.9375 39.5625 C 29 39.6875 29 39.6875 29 39.6875 Z M 28.875 39.8125 C 28.9375 40 28.9375 40 28.9375 40 Z M 28.8125 40.1875 C 28.875 40.4375 28.875 40.4375 28.875 40.4375 Z M 28.75 40.5625 C 28.8125 40.6875 28.8125 40.6875 28.8125 40.6875 Z M 28.6875 40.9375 C 28.75 41.125 28.75 41.125 28.75 41.125 Z M 28.625 41.375 C 28.6875 41.5625 28.6875 41.5625 28.6875 41.5625 Z M 28.5625 41.8125 C 28.5625 41.914062 28.5625 42.019531 28.5625 42.125 C 28.582031 42.125 28.605469 42.125 28.625 42.125 C 28.625 42.023438 28.625 41.917969 28.625 41.8125 C 28.605469 41.8125 28.582031 41.8125 28.5625 41.8125 Z M 28.5 42.375 C 28.5 42.5 28.5 42.621094 28.5 42.75 C 28.519531 42.75 28.542969 42.75 28.5625 42.75 C 28.5625 42.625 28.5625 42.503906 28.5625 42.375 C 28.542969 42.375 28.519531 42.375 28.5 42.375 Z M 33.9375 42.5625 C 34 42.6875 34 42.6875 34 42.6875 Z M 28.4375 43.25 C 28.4375 43.394531 28.4375 43.539062 28.4375 43.6875 C 28.457031 43.6875 28.480469 43.6875 28.5 43.6875 C 28.5 43.542969 28.5 43.398438 28.5 43.25 C 28.480469 43.25 28.457031 43.25 28.4375 43.25 Z M 33.5625 43.375 C 33.625 43.5 33.625 43.5 33.625 43.5 Z M 33.25 44.125 C 33.3125 44.25 33.3125 44.25 33.3125 44.25 Z M 33.125 44.4375 C 33.1875 44.5625 33.1875 44.5625 33.1875 44.5625 Z M 33.0625 44.625 C 33.125 44.75 33.125 44.75 33.125 44.75 Z M 32.875 45.0625 C 32.9375 45.1875 32.9375 45.1875 32.9375 45.1875 Z M 32.75 45.4375 C 32.8125 45.5625 32.8125 45.5625 32.8125 45.5625 Z M 32.6875 45.625 C 32.75 45.75 32.75 45.75 32.75 45.75 Z M 32.5625 45.9375 C 32.625 46.0625 32.625 46.0625 32.625 46.0625 Z M 28.4375 46.0625 C 28.4375 46.226562 28.4375 46.390625 28.4375 46.5625 C 28.457031 46.5625 28.480469 46.5625 28.5 46.5625 C 28.5 46.398438 28.5 46.234375 28.5 46.0625 C 28.480469 46.0625 28.457031 46.0625 28.4375 46.0625 Z M 32.5 46.125 C 32.5625 46.25 32.5625 46.25 32.5625 46.25 Z M 32.4375 46.3125 C 32.5 46.4375 32.5 46.4375 32.5 46.4375 Z M 32.375 46.5 C 32.4375 46.625 32.4375 46.625 32.4375 46.625 Z M 32.3125 46.6875 C 32.375 46.8125 32.375 46.8125 32.375 46.8125 Z M 28.5 47 C 28.5 47.101562 28.5 47.207031 28.5 47.3125 C 28.519531 47.3125 28.542969 47.3125 28.5625 47.3125 C 28.5625 47.210938 28.5625 47.105469 28.5625 47 C 28.542969 47 28.519531 47 28.5 47 Z M 32.1875 47.125 C 32.25 47.25 32.25 47.25 32.25 47.25 Z M 32.125 47.3125 C 32.1875 47.4375 32.1875 47.4375 32.1875 47.4375 Z M 32.0625 47.5625 C 32.125 47.6875 32.125 47.6875 32.125 47.6875 Z M 28.5625 47.625 C 28.625 47.875 28.625 47.875 28.625 47.875 Z M 28.625 48.125 C 28.6875 48.3125 28.6875 48.3125 28.6875 48.3125 Z M 31.875 48.1875 C 31.9375 48.3125 31.9375 48.3125 31.9375 48.3125 Z M 31.8125 48.4375 C 31.875 48.5625 31.875 48.5625 31.875 48.5625 Z M 28.6875 48.5625 C 28.75 48.8125 28.75 48.8125 28.75 48.8125 Z M 31.75 48.6875 C 31.8125 48.8125 31.8125 48.8125 31.8125 48.8125 Z M 31.6875 48.9375 C 31.75 49.0625 31.75 49.0625 31.75 49.0625 Z M 28.75 49 C 28.8125 49.1875 28.8125 49.1875 28.8125 49.1875 Z M 31.625 49.125 C 31.6875 49.3125 31.6875 49.3125 31.6875 49.3125 Z M 28.8125 49.3125 C 28.875 49.5 28.875 49.5 28.875 49.5 Z M 31.5625 49.4375 C 31.625 49.625 31.625 49.625 31.625 49.625 Z M 28.875 49.6875 C 28.9375 49.875 28.9375 49.875 28.9375 49.875 Z M 31.5 49.6875 C 31.5625 49.875 31.5625 49.875 31.5625 49.875 Z M 31.4375 50 C 31.5 50.1875 31.5 50.1875 31.5 50.1875 Z M 28.9375 50.0625 C 29 50.1875 29 50.1875 29 50.1875 Z M 29 50.3125 C 29.0625 50.4375 29.0625 50.4375 29.0625 50.4375 Z M 31.375 50.3125 C 31.4375 50.5 31.4375 50.5 31.4375 50.5 Z M 29.0625 50.5625 C 29.125 50.6875 29.125 50.6875 29.125 50.6875 Z M 31.3125 50.625 C 31.375 50.8125 31.375 50.8125 31.375 50.8125 Z M 29.125 50.8125 C 29.1875 50.9375 29.1875 50.9375 29.1875 50.9375 Z M 31.25 51 C 31.3125 51.125 31.3125 51.125 31.3125 51.125 Z M 29.1875 51.125 C 29.25 51.25 29.25 51.25 29.25 51.25 Z M 31.1875 51.3125 C 31.25 51.5 31.25 51.5 31.25 51.5 Z M 29.25 51.375 C 29.3125 51.5 29.3125 51.5 29.3125 51.5 Z M 29.3125 51.5625 C 29.375 51.6875 29.375 51.6875 29.375 51.6875 Z M 31.125 51.6875 C 31.1875 51.9375 31.1875 51.9375 31.1875 51.9375 Z M 29.375 51.8125 C 29.4375 51.9375 29.4375 51.9375 29.4375 51.9375 Z M 31.0625 52.125 C 31.125 52.3125 31.125 52.3125 31.125 52.3125 Z M 31 52.5 C 31.0625 52.75 31.0625 52.75 31.0625 52.75 Z M 29.625 52.625 C 29.6875 52.75 29.6875 52.75 29.6875 52.75 Z M 29.6875 52.8125 C 29.75 52.9375 29.75 52.9375 29.75 52.9375 Z M 30.9375 52.9375 C 31 53.125 31 53.125 31 53.125 Z M 30.875 53.3125 C 30.875 53.414062 30.875 53.519531 30.875 53.625 C 30.894531 53.625 30.917969 53.625 30.9375 53.625 C 30.9375 53.523438 30.9375 53.417969 30.9375 53.3125 C 30.917969 53.3125 30.894531 53.3125 30.875 53.3125 Z M 30 53.625 C 30.0625 53.75 30.0625 53.75 30.0625 53.75 Z M 30.8125 53.875 C 30.875 54.125 30.875 54.125 30.875 54.125 Z M 30.125 53.9375 C 30.1875 54.0625 30.1875 54.0625 30.1875 54.0625 Z M 30.75 54.375 C 30.75 54.519531 30.75 54.664062 30.75 54.8125 C 30.769531 54.8125 30.792969 54.8125 30.8125 54.8125 C 30.8125 54.667969 30.8125 54.523438 30.8125 54.375 C 30.792969 54.375 30.769531 54.375 30.75 54.375 Z M 30.5 54.8125 C 30.5625 54.9375 30.5625 54.9375 30.5625 54.9375 Z M 30.5 54.8125 "/>
<path style=" stroke:none;fill-rule:nonzero;fill:rgb(99.215686%,93.333334%,87.450981%);fill-opacity:1;" d="M 44.226562 8.90625 C 44.316406 8.90625 44.316406 8.90625 44.410156 8.90625 C 44.617188 8.90625 44.824219 8.90625 45.03125 8.90625 C 45.179688 8.90625 45.328125 8.90625 45.476562 8.90625 C 45.835938 8.90625 46.199219 8.90625 46.558594 8.90625 C 46.976562 8.910156 47.398438 8.910156 47.816406 8.910156 C 48.566406 8.910156 49.316406 8.910156 50.066406 8.910156 C 50.792969 8.914062 51.519531 8.914062 52.246094 8.914062 C 52.292969 8.914062 52.335938 8.914062 52.382812 8.914062 C 52.425781 8.914062 52.472656 8.914062 52.519531 8.914062 C 53.347656 8.914062 54.171875 8.914062 55 8.917969 C 55.292969 8.917969 55.585938 8.917969 55.878906 8.917969 C 56.273438 8.917969 56.667969 8.917969 57.0625 8.917969 C 57.207031 8.917969 57.351562 8.917969 57.496094 8.917969 C 57.691406 8.917969 57.890625 8.917969 58.085938 8.921875 C 58.175781 8.921875 58.175781 8.921875 58.261719 8.921875 C 58.316406 8.921875 58.367188 8.921875 58.421875 8.921875 C 58.492188 8.921875 58.492188 8.921875 58.558594 8.921875 C 58.777344 8.949219 58.90625 9.023438 59.046875 9.1875 C 59.160156 9.460938 59.152344 9.707031 59.148438 10 C 59.148438 10.09375 59.148438 10.09375 59.148438 10.191406 C 59.148438 10.40625 59.148438 10.617188 59.148438 10.832031 C 59.148438 10.984375 59.148438 11.136719 59.148438 11.289062 C 59.148438 11.660156 59.148438 12.03125 59.144531 12.402344 C 59.144531 12.835938 59.144531 13.269531 59.144531 13.699219 C 59.144531 14.472656 59.144531 15.242188 59.144531 16.015625 C 59.140625 16.761719 59.140625 17.511719 59.140625 18.261719 C 59.140625 18.304688 59.140625 18.351562 59.140625 18.398438 C 59.140625 18.492188 59.140625 18.585938 59.140625 18.679688 C 59.140625 18.726562 59.140625 18.769531 59.140625 18.816406 C 59.140625 18.886719 59.140625 18.886719 59.140625 18.957031 C 59.140625 19.667969 59.140625 20.382812 59.136719 21.097656 C 59.136719 21.355469 59.136719 21.613281 59.136719 21.871094 C 59.136719 22.320312 59.136719 22.769531 59.136719 23.21875 C 59.136719 23.367188 59.136719 23.515625 59.136719 23.664062 C 59.136719 23.867188 59.132812 24.070312 59.132812 24.273438 C 59.132812 24.363281 59.132812 24.363281 59.132812 24.453125 C 59.132812 24.507812 59.132812 24.5625 59.132812 24.617188 C 59.132812 24.6875 59.132812 24.6875 59.132812 24.761719 C 59.125 24.875 59.125 24.875 59.0625 25 C 58.871094 25.066406 58.871094 25.066406 58.625 25.0625 C 58.15625 24.761719 57.757812 24.265625 57.363281 23.871094 C 57.246094 23.753906 57.128906 23.636719 57.011719 23.519531 C 56.328125 22.835938 56.328125 22.835938 56.023438 22.472656 C 55.898438 22.332031 55.753906 22.214844 55.609375 22.097656 C 55.496094 21.996094 55.402344 21.894531 55.308594 21.777344 C 55.027344 21.457031 54.726562 21.152344 54.425781 20.851562 C 54.371094 20.796875 54.316406 20.738281 54.257812 20.679688 C 54.203125 20.628906 54.148438 20.574219 54.09375 20.519531 C 54.046875 20.46875 54 20.421875 53.949219 20.371094 C 53.78125 20.222656 53.652344 20.128906 53.429688 20.117188 C 52.871094 20.179688 52.585938 20.464844 52.207031 20.855469 C 52.035156 21.027344 51.855469 21.183594 51.671875 21.34375 C 51.582031 21.421875 51.496094 21.503906 51.414062 21.589844 C 51.3125 21.6875 51.3125 21.6875 51.1875 21.6875 C 51.167969 21.75 51.144531 21.8125 51.125 21.875 C 51.027344 21.960938 50.925781 22.042969 50.820312 22.125 C 50.492188 22.386719 50.203125 22.664062 49.910156 22.964844 C 49.734375 23.140625 49.546875 23.304688 49.355469 23.46875 C 49.171875 23.628906 49.007812 23.800781 48.839844 23.976562 C 48.75 24.070312 48.65625 24.160156 48.5625 24.25 C 48.519531 24.25 48.480469 24.25 48.4375 24.25 C 48.4375 24.292969 48.4375 24.332031 48.4375 24.375 C 48.394531 24.375 48.355469 24.375 48.3125 24.375 C 48.300781 24.410156 48.289062 24.441406 48.273438 24.476562 C 48.152344 24.683594 47.980469 24.828125 47.804688 24.988281 C 47.375 25.378906 46.957031 25.785156 46.546875 26.195312 C 46.515625 26.226562 46.484375 26.257812 46.453125 26.289062 C 46.292969 26.449219 46.132812 26.609375 45.976562 26.765625 C 45.8125 26.929688 45.648438 27.09375 45.488281 27.253906 C 45.359375 27.382812 45.230469 27.507812 45.105469 27.636719 C 45.015625 27.726562 44.925781 27.8125 44.839844 27.902344 C 44.558594 28.183594 44.285156 28.46875 44.027344 28.773438 C 43.855469 28.96875 43.664062 29.148438 43.476562 29.332031 C 43.308594 29.503906 43.148438 29.6875 42.988281 29.871094 C 42.808594 30.078125 42.617188 30.277344 42.425781 30.476562 C 42.03125 30.894531 41.652344 31.324219 41.277344 31.765625 C 41.152344 31.917969 41.023438 32.0625 40.898438 32.210938 C 40.34375 32.855469 39.808594 33.515625 39.285156 34.1875 C 39.179688 34.324219 39.074219 34.457031 38.96875 34.59375 C 38.890625 34.691406 38.8125 34.789062 38.738281 34.886719 C 38.703125 34.929688 38.667969 34.976562 38.632812 35.023438 C 38.167969 35.617188 37.734375 36.230469 37.320312 36.859375 C 37.234375 36.992188 37.144531 37.125 37.058594 37.257812 C 37.015625 37.320312 36.972656 37.382812 36.929688 37.449219 C 36.828125 37.597656 36.730469 37.75 36.628906 37.898438 C 35.015625 40.285156 33.710938 42.910156 32.75 45.625 C 32.726562 45.691406 32.703125 45.753906 32.679688 45.820312 C 31.617188 48.832031 30.996094 52.007812 30.75 55.1875 C 28.734375 52.78125 28.425781 47.953125 28.421875 44.949219 C 28.421875 44.898438 28.421875 44.847656 28.421875 44.792969 C 28.425781 42.535156 28.730469 40.308594 29.3125 38.125 C 29.335938 38.03125 29.335938 38.03125 29.363281 37.933594 C 29.601562 37.054688 29.890625 36.210938 30.25 35.375 C 30.269531 35.328125 30.292969 35.277344 30.3125 35.226562 C 30.582031 34.605469 30.867188 33.992188 31.179688 33.386719 C 31.230469 33.289062 31.277344 33.191406 31.328125 33.09375 C 31.683594 32.394531 32.054688 31.71875 32.484375 31.058594 C 32.566406 30.933594 32.644531 30.808594 32.726562 30.679688 C 33.628906 29.265625 34.59375 27.898438 35.664062 26.605469 C 35.78125 26.464844 35.894531 26.320312 36.007812 26.175781 C 36.410156 25.671875 36.828125 25.183594 37.253906 24.703125 C 37.355469 24.585938 37.453125 24.472656 37.550781 24.355469 C 37.859375 23.988281 38.167969 23.632812 38.511719 23.300781 C 38.628906 23.183594 38.734375 23.066406 38.839844 22.941406 C 39.042969 22.703125 39.265625 22.484375 39.488281 22.265625 C 39.613281 22.136719 39.734375 22.003906 39.851562 21.867188 C 40.269531 21.382812 40.269531 21.382812 40.5 21.1875 C 40.542969 21.1875 40.582031 21.1875 40.625 21.1875 C 40.640625 21.152344 40.65625 21.117188 40.671875 21.082031 C 40.765625 20.910156 40.878906 20.792969 41.019531 20.65625 C 41.070312 20.601562 41.125 20.546875 41.179688 20.492188 C 41.238281 20.4375 41.292969 20.382812 41.351562 20.324219 C 41.433594 20.242188 41.433594 20.242188 41.519531 20.15625 C 41.796875 19.878906 42.082031 19.613281 42.378906 19.355469 C 42.601562 19.160156 42.804688 18.953125 43.011719 18.742188 C 43.054688 18.699219 43.097656 18.65625 43.140625 18.613281 C 43.316406 18.4375 43.488281 18.261719 43.664062 18.085938 C 43.863281 17.886719 44.074219 17.695312 44.285156 17.507812 C 44.488281 17.320312 44.679688 17.132812 44.875 16.9375 C 44.996094 16.824219 45.117188 16.710938 45.238281 16.601562 C 45.269531 16.570312 45.304688 16.542969 45.339844 16.511719 C 45.519531 16.34375 45.703125 16.179688 45.890625 16.019531 C 46.105469 15.835938 46.300781 15.636719 46.5 15.4375 C 46.625 15.3125 46.753906 15.199219 46.886719 15.085938 C 47.320312 14.714844 47.320312 14.714844 47.519531 14.203125 C 47.480469 13.78125 47.144531 13.503906 46.855469 13.226562 C 46.640625 13.019531 46.433594 12.8125 46.242188 12.585938 C 45.976562 12.28125 45.691406 11.996094 45.402344 11.710938 C 45.285156 11.597656 45.171875 11.484375 45.058594 11.371094 C 44.878906 11.191406 44.699219 11.015625 44.519531 10.835938 C 44.34375 10.664062 44.167969 10.492188 43.996094 10.316406 C 43.941406 10.265625 43.886719 10.210938 43.832031 10.15625 C 43.757812 10.082031 43.757812 10.082031 43.679688 10.003906 C 43.636719 9.960938 43.59375 9.917969 43.546875 9.875 C 43.394531 9.699219 43.308594 9.578125 43.320312 9.34375 C 43.480469 8.882812 43.796875 8.902344 44.226562 8.90625 Z M 44.226562 8.90625 "/>
<path style=" stroke:none;fill-rule:nonzero;fill:rgb(23.529412%,40.392157%,55.29412%);fill-opacity:1;" d="M 54.75 21.25 C 54.84375 21.3125 54.84375 21.3125 54.9375 21.375 C 54.957031 21.542969 54.960938 21.695312 54.960938 21.863281 C 54.960938 21.914062 54.960938 21.964844 54.960938 22.019531 C 54.960938 22.191406 54.960938 22.363281 54.960938 22.539062 C 54.960938 22.664062 54.960938 22.789062 54.960938 22.914062 C 54.960938 23.257812 54.960938 23.601562 54.960938 23.945312 C 54.957031 24.316406 54.957031 24.6875 54.957031 25.058594 C 54.957031 25.703125 54.957031 26.347656 54.957031 26.992188 C 54.957031 27.664062 54.957031 28.339844 54.957031 29.015625 C 54.957031 29.058594 54.957031 29.097656 54.957031 29.140625 C 54.957031 29.355469 54.957031 29.566406 54.953125 29.78125 C 54.953125 31.289062 54.953125 32.800781 54.953125 34.308594 C 54.949219 35.773438 54.949219 37.242188 54.949219 38.707031 C 54.949219 38.753906 54.949219 38.796875 54.949219 38.84375 C 54.949219 39.296875 54.945312 39.753906 54.945312 40.207031 C 54.945312 41.128906 54.945312 42.054688 54.945312 42.976562 C 54.945312 43.019531 54.945312 43.0625 54.945312 43.105469 C 54.945312 45.945312 54.941406 48.785156 54.9375 51.625 C 54.894531 51.625 54.855469 51.625 54.8125 51.625 C 54.792969 41.601562 54.769531 31.578125 54.75 21.25 Z M 54.75 21.25 "/>
<path style=" stroke:none;fill-rule:nonzero;fill:rgb(96.078432%,94.117647%,90.588236%);fill-opacity:1;" d="M 40.25 21.4375 C 40.25 21.835938 39.757812 22.179688 39.484375 22.453125 C 39.378906 22.558594 39.273438 22.664062 39.167969 22.769531 C 38.953125 22.984375 38.746094 23.199219 38.550781 23.429688 C 38.394531 23.613281 38.230469 23.789062 38.066406 23.96875 C 38.019531 24.019531 38.019531 24.019531 37.972656 24.070312 C 37.898438 24.152344 37.824219 24.230469 37.75 24.3125 C 37.707031 24.292969 37.667969 24.269531 37.625 24.25 C 37.679688 24.191406 37.734375 24.132812 37.792969 24.070312 C 37.867188 23.992188 37.945312 23.910156 38.019531 23.828125 C 38.058594 23.785156 38.097656 23.742188 38.140625 23.699219 C 38.386719 23.4375 38.628906 23.171875 38.871094 22.90625 C 39.082031 22.675781 39.300781 22.449219 39.523438 22.226562 C 39.675781 22.070312 39.820312 21.90625 39.964844 21.738281 C 40.054688 21.632812 40.152344 21.535156 40.25 21.4375 Z M 40.25 21.4375 "/>
<path style=" stroke:none;fill-rule:nonzero;fill:rgb(95.294118%,93.725491%,90.980393%);fill-opacity:1;" d="M 43.3125 18.4375 C 43.3125 18.679688 43.214844 18.742188 43.050781 18.910156 C 43.015625 18.945312 42.976562 18.980469 42.9375 19.019531 C 42.898438 19.058594 42.863281 19.097656 42.824219 19.136719 C 42.742188 19.214844 42.660156 19.296875 42.578125 19.375 C 42.453125 19.5 42.332031 19.621094 42.207031 19.746094 C 42.128906 19.824219 42.046875 19.902344 41.96875 19.980469 C 41.933594 20.015625 41.894531 20.054688 41.859375 20.089844 C 41.683594 20.261719 41.511719 20.421875 41.3125 20.5625 C 41.269531 20.542969 41.230469 20.519531 41.1875 20.5 C 41.976562 19.703125 41.976562 19.703125 42.363281 19.371094 C 42.695312 19.074219 43 18.753906 43.3125 18.4375 Z M 43.3125 18.4375 "/>
<path style=" stroke:none;fill-rule:nonzero;fill:rgb(15.294118%,34.509805%,52.156866%);fill-opacity:1;" d="M 45.8125 26.9375 C 45.855469 26.957031 45.894531 26.980469 45.9375 27 C 45.902344 27.035156 45.867188 27.070312 45.828125 27.105469 C 45.558594 27.375 45.296875 27.648438 45.046875 27.9375 C 44.855469 28.15625 44.644531 28.359375 44.4375 28.5625 C 44.417969 28.5 44.394531 28.4375 44.375 28.375 C 44.847656 27.902344 45.324219 27.425781 45.8125 26.9375 Z M 45.8125 26.9375 "/>
<path style=" stroke:none;fill-rule:nonzero;fill:rgb(95.686275%,93.725491%,90.588236%);fill-opacity:1;" d="M 44.5625 17.25 C 44.605469 17.269531 44.644531 17.292969 44.6875 17.3125 C 44.527344 17.476562 44.367188 17.640625 44.207031 17.804688 C 44.140625 17.875 44.140625 17.875 44.070312 17.945312 C 44.027344 17.992188 43.980469 18.035156 43.9375 18.082031 C 43.898438 18.121094 43.855469 18.164062 43.816406 18.207031 C 43.675781 18.324219 43.546875 18.378906 43.375 18.4375 C 43.421875 18.390625 43.46875 18.347656 43.515625 18.300781 C 43.683594 18.136719 43.683594 18.136719 43.800781 17.976562 C 43.960938 17.785156 44.136719 17.632812 44.324219 17.472656 C 44.441406 17.375 44.441406 17.375 44.5625 17.25 Z M 44.5625 17.25 "/>
<path style=" stroke:none;fill-rule:nonzero;fill:rgb(94.509804%,92.941177%,91.37255%);fill-opacity:1;" d="M 41.125 20.5625 C 41.144531 20.605469 41.167969 20.644531 41.1875 20.6875 C 40.953125 20.964844 40.730469 21.222656 40.4375 21.4375 C 40.394531 21.417969 40.355469 21.394531 40.3125 21.375 C 40.398438 21.28125 40.398438 21.28125 40.5 21.1875 C 40.542969 21.1875 40.582031 21.1875 40.625 21.1875 C 40.636719 21.152344 40.652344 21.121094 40.664062 21.085938 C 40.785156 20.875 40.949219 20.730469 41.125 20.5625 Z M 41.125 20.5625 "/>
<path style=" stroke:none;fill-rule:nonzero;fill:rgb(95.686275%,93.725491%,90.196079%);fill-opacity:1;" d="M 37.3125 24.625 C 37.332031 24.667969 37.355469 24.707031 37.375 24.75 C 37.308594 24.832031 37.238281 24.917969 37.167969 25 C 37.109375 25.070312 37.109375 25.070312 37.050781 25.140625 C 36.9375 25.25 36.9375 25.25 36.75 25.25 C 36.9375 25.042969 37.121094 24.835938 37.3125 24.625 Z M 37.3125 24.625 "/>
<path style=" stroke:none;fill-rule:nonzero;fill:rgb(23.921569%,40.000001%,55.686277%);fill-opacity:1;" d="M 49.6875 23.125 C 49.75 23.144531 49.8125 23.167969 49.875 23.1875 C 49.6875 23.351562 49.503906 23.515625 49.3125 23.6875 C 49.269531 23.667969 49.230469 23.644531 49.1875 23.625 C 49.351562 23.460938 49.515625 23.296875 49.6875 23.125 Z M 49.6875 23.125 "/>
<path style=" stroke:none;fill-rule:nonzero;fill:rgb(94.509804%,94.509804%,92.156863%);fill-opacity:1;" d="M 30.3125 35.25 C 30.332031 35.25 30.355469 35.25 30.375 35.25 C 30.414062 35.570312 30.273438 35.792969 30.125 36.0625 C 30.082031 36.0625 30.042969 36.0625 30 36.0625 C 30.027344 35.972656 30.058594 35.886719 30.085938 35.796875 C 30.109375 35.722656 30.109375 35.722656 30.132812 35.648438 C 30.183594 35.507812 30.242188 35.378906 30.3125 35.25 Z M 30.3125 35.25 "/>
<path style=" stroke:none;fill-rule:nonzero;fill:rgb(20.784314%,38.431373%,55.29412%);fill-opacity:1;" d="M 50.8125 22.125 C 50.855469 22.144531 50.894531 22.167969 50.9375 22.1875 C 50.722656 22.375 50.722656 22.375 50.5 22.5625 C 50.457031 22.542969 50.417969 22.519531 50.375 22.5 C 50.519531 22.375 50.664062 22.253906 50.8125 22.125 Z M 50.8125 22.125 "/>
</g>
</svg>
