<?xml version="1.0" encoding="UTF-8"?>
<svg version="1.1" xmlns="http://www.w3.org/2000/svg" width="1024" height="1024">
<path d="M0 0 C0.655448 -0.00004028 1.310896 -0.00008057 1.98620605 -0.00012207 C4.14074434 0.00328322 6.29478159 0.02228345 8.44921875 0.04296875 C9.98201368 0.05190052 11.51480996 0.06060414 13.04760742 0.0690918 C17.74432298 0.10143744 22.44041321 0.16149493 27.13671875 0.23046875 C27.82733398 0.24013672 28.51794922 0.24980469 29.22949219 0.25976562 C118.09117273 1.5582802 207.43034187 13.10804566 346.13671875 79.23046875 C346.79462402 79.66617188 347.4525293 80.101875 348.13037109 80.55078125 C354.37144684 84.71477199 360.39866177 89.07648317 366.13671875 93.91796875 C368.51366301 95.47783842 370.31231291 95.97618141 373.13671875 96.23046875 C376.87002053 94.28265913 379.46793221 91.95308704 382.37109375 88.93359375 C385.85386981 85.42431533 389.5360307 82.41039758 393.51171875 79.48046875 C394.20668457 78.96661621 394.90165039 78.45276367 395.61767578 77.92333984 C441.40038223 44.43156873 498.0299631 22.04963001 552.88671875 8.73046875 C553.59503845 8.55825806 554.30335815 8.38604736 555.03314209 8.20861816 C569.62462826 4.68860577 569.62462826 4.68860577 576.13671875 4.23046875 C576.46671875 4.56046875 576.79671875 4.89046875 577.13671875 5.23046875 C577.59864876 4.58066732 578.06057877 3.9308659 578.53650665 3.26137352 C582.43043612 0.22000627 585.9277034 0.68237629 590.7401123 0.73599243 C592.21720964 0.72874919 592.21720964 0.72874919 593.72414732 0.72135961 C597.03316264 0.71006252 600.34140966 0.72742809 603.65039062 0.74462891 C606.01884674 0.7424837 608.38730183 0.73860698 610.75575256 0.73312378 C616.5265238 0.72442282 622.29704563 0.73432288 628.0677892 0.75282438 C634.78650525 0.77359097 641.50517173 0.77345204 648.22391385 0.77247922 C660.2110105 0.77147787 672.19800045 0.78980374 684.18505859 0.81884766 C695.81951847 0.84702271 707.45388444 0.8611892 719.08837891 0.85986328 C719.80493233 0.85978337 720.52148576 0.85970346 721.25975293 0.85962112 C721.97506139 0.85954041 722.69036986 0.8594597 723.42735434 0.85937655 C736.66840622 0.85799701 749.90941817 0.86977617 763.15045711 0.88768298 C767.83492009 0.89371721 772.51937573 0.89584229 777.20384216 0.89674759 C783.50750991 0.89875336 789.8110786 0.91093769 796.11471367 0.93107986 C798.43188813 0.93693271 800.749074 0.93938002 803.06625557 0.93822479 C806.22205153 0.93724666 809.37756808 0.94852241 812.5333252 0.96304321 C813.91833324 0.95839741 813.91833324 0.95839741 815.33132124 0.95365775 C816.17631697 0.96010664 817.0213127 0.96655553 817.89191437 0.97319984 C818.62032799 0.97460869 819.34874162 0.97601754 820.09922838 0.97746909 C823.54880059 1.40581006 825.6085894 2.61891975 827.86375046 5.23029041 C829.70895004 9.57912444 829.54392798 13.55480002 829.50421143 18.23332214 C829.50748027 19.24890412 829.51074911 20.2644861 829.514117 21.31084329 C829.52140706 24.71804105 829.50723139 28.12481083 829.49316406 31.53198242 C829.49395479 33.97279432 829.49605158 36.4136061 829.49935913 38.85441589 C829.50396444 44.79745806 829.49468273 50.74038328 829.47907117 56.68339773 C829.46153365 63.60125042 829.46011197 70.51907807 829.45945558 77.43694953 C829.45776784 89.77627226 829.44195529 102.11553615 829.41796875 114.45483398 C829.39469594 126.43563322 829.38054187 138.41639514 829.37695312 150.3972168 C829.37673036 151.13554728 829.37650759 151.87387776 829.37627807 152.63458189 C829.37583548 154.12190877 829.37539346 155.60923564 829.374952 157.09656252 C829.37462265 158.19702183 829.37462265 158.19702183 829.37428665 159.31971264 C829.37407067 160.05146946 829.37385468 160.78322628 829.37363215 161.53715755 C829.36993415 172.94684846 829.35857564 184.35653332 829.34615625 195.76621762 C829.34171752 199.90528332 829.3382807 204.04434846 829.33553413 208.18341561 C829.33069402 215.35834652 829.32059927 222.53324532 829.30470657 229.70816231 C829.30017194 232.09552117 829.29734217 234.48288394 829.29629898 236.87024689 C829.29456172 240.11638278 829.28670125 243.36244535 829.27716064 246.60856628 C829.27846037 248.04214463 829.27846037 248.04214463 829.27978635 249.50468415 C829.2759452 250.36946486 829.27210406 251.23424556 829.26814651 252.12523174 C829.26627677 253.25007474 829.26627677 253.25007474 829.26436925 254.39764184 C829.13671875 256.23046875 829.13671875 256.23046875 828.13671875 258.23046875 C825.07421875 259.29296875 825.07421875 259.29296875 821.13671875 259.23046875 C813.61517577 254.42733993 807.24506882 246.49057128 800.95483398 240.17895508 C799.078424 238.29718601 797.19672906 236.42082137 795.31445312 234.54492188 C784.3581778 223.59336228 784.3581778 223.59336228 779.51977539 217.77905273 C777.51841556 215.53816563 775.22671935 213.71501675 772.91015625 211.8125 C769.6633088 208.91608323 766.93956426 205.54796103 764.13671875 202.23046875 C763.80671875 201.90046875 763.47671875 201.57046875 763.13671875 201.23046875 C763.13612166 202.25096321 763.13552457 203.27145768 763.13490939 204.32287621 C763.10834106 249.28335668 763.07684134 294.24383133 763.02008057 339.20428467 C763.01922306 339.88463567 763.01836555 340.56498668 763.01748205 341.26595438 C762.99881776 356.05071881 762.9792654 370.83548194 762.9587978 385.62024398 C762.94876635 392.87036425 762.9389312 400.12048479 762.92919922 407.37060547 C762.92822741 408.09209145 762.92725561 408.81357744 762.92625435 409.55692663 C762.89482988 432.9553395 762.87637597 456.35374082 762.86462628 479.75217115 C762.85248671 503.79092267 762.82730568 527.82962593 762.78564261 551.86834528 C762.77976825 555.2612468 762.77404346 558.65414855 762.76840973 562.04705048 C762.76673954 563.04873846 762.76673954 563.04873846 762.76503561 564.07066257 C762.74856339 574.1664219 762.74360734 584.26214625 762.7448349 594.35791779 C762.74613994 605.83748618 762.73420185 617.31694038 762.70455447 628.7964724 C762.68985232 634.6581439 762.68175347 640.51963596 762.69091606 646.38132286 C762.6991537 651.74172906 762.6891847 657.10177346 762.66438213 662.46212575 C762.65866015 664.40699436 762.65977256 666.35189684 762.6682063 668.29675558 C762.67865162 670.92997344 762.66476719 673.56195341 762.64452744 676.19508743 C762.65343114 676.95947823 762.66233485 677.72386902 762.67150837 678.51142317 C762.61991983 681.98278431 762.39944072 683.88424726 760.27295804 686.68657851 C757.56468658 688.64388446 755.63628433 688.94776623 752.32006836 689.30786133 C751.13265045 689.44539825 749.94523254 689.58293518 748.72183228 689.72463989 C746.77511124 689.92281815 746.77511124 689.92281815 744.7890625 690.125 C743.40863893 690.27797338 742.02838236 690.43246026 740.64828491 690.58834839 C736.90691011 691.00642603 733.16349639 691.40256076 729.41934586 691.79488754 C725.4821612 692.21138587 721.54728774 692.64871892 717.61206055 693.08325195 C698.76015725 695.15480094 679.89385752 697.09157309 661.02832031 699.03417969 C658.87974153 699.25547008 656.73116575 699.47678953 654.58259583 699.69816589 C653.15823419 699.84491855 651.7338669 699.99161639 650.30949402 700.13825989 C628.84332679 702.34965389 607.41813952 704.60334453 586.13671875 708.23046875 C584.89599609 708.43961914 583.65527344 708.64876953 582.37695312 708.86425781 C543.77250468 715.5438826 506.91396993 728.47574219 471.13671875 744.23046875 C469.93909912 744.75374756 469.93909912 744.75374756 468.71728516 745.28759766 C449.00368699 753.96651255 430.32634245 765.13574256 412.57421875 777.29296875 C411.58881104 777.96755127 411.58881104 777.96755127 410.58349609 778.65576172 C404.17032324 783.10605579 398.02175978 787.88218706 391.90014648 792.72290039 C391.17641846 793.29516357 390.45269043 793.86742676 389.70703125 794.45703125 C389.06523926 794.96830566 388.42344727 795.47958008 387.76220703 796.00634766 C384.48602295 798.4735731 382.21029288 798.58678611 378.13671875 798.23046875 C375.69264915 797.11738645 373.54352541 795.98568929 371.26171875 794.60546875 C370.58173828 794.2094043 369.90175781 793.81333984 369.20117188 793.40527344 C366.83886721 792.02604613 364.48799744 790.62840248 362.13671875 789.23046875 C358.30704261 786.9742147 354.4725559 784.72623003 350.63671875 782.48046875 C349.62375732 781.8865332 348.6107959 781.29259766 347.56713867 780.68066406 C337.40062329 774.74734062 327.06855675 769.14307446 316.68408203 763.60253906 C314.55845231 762.45762445 312.45058796 761.29029755 310.3515625 760.09765625 C264.34161012 734.37513317 211.50163712 719.57324614 160.13671875 709.23046875 C159.41347412 709.08478455 158.69022949 708.93910034 157.94506836 708.78900146 C112.01116304 699.6088239 65.2093694 695.53838549 18.65625 690.8671875 C17.89340258 690.79061983 17.13055515 690.71405216 16.34459114 690.63516426 C14.16835663 690.41710709 11.99202917 690.20000181 9.81567383 689.9831543 C8.80806425 689.88203952 8.80806425 689.88203952 7.78009892 689.77888203 C2.94713386 689.29801729 -1.88919814 688.88585034 -6.73262024 688.5259552 C-9.67392076 688.11804683 -11.62720582 687.16840079 -13.86328125 685.23046875 C-14.82553257 682.34371479 -14.9887396 680.54154173 -14.98978108 677.54306954 C-14.99254083 676.57174182 -14.99530057 675.6004141 -14.99814394 674.5996522 C-14.99608862 673.5279195 -14.9940333 672.4561868 -14.9919157 671.35197735 C-14.99366874 670.21234953 -14.99542178 669.07272171 -14.99722794 667.89855972 C-15.00109623 664.7163119 -15.00045053 661.53410078 -14.99795017 658.35185273 C-14.99632241 654.89694846 -15.00045347 651.44205042 -15.00385934 647.98714811 C-15.00902338 641.92562145 -15.01042881 635.86410279 -15.00940323 629.80257416 C-15.00788187 620.78891539 -15.01203213 611.77526551 -15.01727785 602.76160847 C-15.02696337 585.72843658 -15.02976254 568.69526769 -15.03033491 551.66209336 C-15.03079395 538.51099357 -15.03284963 525.35989496 -15.03603554 512.20879555 C-15.03693304 508.42720153 -15.03782286 504.64560751 -15.03871042 500.86401349 C-15.03893146 499.92397351 -15.03915251 498.98393354 -15.03938026 498.0154075 C-15.04553698 471.56323344 -15.04948057 445.1110598 -15.04903698 418.658885 C-15.0490214 417.66098655 -15.04900582 416.66308809 -15.04898977 415.63495029 C-15.04890666 410.57685633 -15.04880762 405.51876237 -15.04870506 400.46066841 C-15.04868512 399.45606128 -15.04866517 398.45145414 -15.04864462 397.41640437 C-15.04860419 395.38484266 -15.04856239 393.35328094 -15.04851923 391.32171922 C-15.04790637 359.70853413 -15.05541397 328.09535976 -15.0690918 296.48217773 C-15.08444213 260.98851748 -15.09305865 225.49486428 -15.09212857 190.0012005 C-15.09205394 186.21866341 -15.09200524 182.43612633 -15.09197426 178.65358925 C-15.0919626 177.72218986 -15.09195095 176.79079048 -15.09193894 175.83116687 C-15.09190813 160.82221646 -15.0983025 145.81327533 -15.10690652 130.80432769 C-15.11537076 115.72771365 -15.11638263 100.65111324 -15.1097972 85.57449814 C-15.10609329 76.61082683 -15.1079589 67.64719683 -15.11773954 58.68352987 C-15.12371728 52.70104614 -15.12246878 46.71859248 -15.11526904 40.73611016 C-15.11136878 37.32413936 -15.11066547 33.9122488 -15.1187264 30.5002835 C-15.12572962 26.82894207 -15.12053763 23.15781735 -15.11217022 19.48648357 C-15.1171384 18.42177437 -15.12210658 17.35706517 -15.12722531 16.26009205 C-15.08136962 6.81216838 -15.08136962 6.81216838 -12.86328125 2.23046875 C-8.63358525 0.09589519 -4.6802848 -0.01625652 0 0 Z M643.13671875 82.23046875 C643.13671875 84.21046875 643.13671875 86.19046875 643.13671875 88.23046875 C643.46671875 88.23046875 643.79671875 88.23046875 644.13671875 88.23046875 C644.13671875 86.25046875 644.13671875 84.27046875 644.13671875 82.23046875 C643.80671875 82.23046875 643.47671875 82.23046875 643.13671875 82.23046875 Z M734.13671875 179.23046875 C734.13671875 179.56046875 734.13671875 179.89046875 734.13671875 180.23046875 C736.11671875 180.23046875 738.09671875 180.23046875 740.13671875 180.23046875 C740.13671875 179.90046875 740.13671875 179.57046875 740.13671875 179.23046875 C738.15671875 179.23046875 736.17671875 179.23046875 734.13671875 179.23046875 Z M658.13671875 246.23046875 C658.46671875 246.89046875 658.79671875 247.55046875 659.13671875 248.23046875 C659.46671875 247.57046875 659.79671875 246.91046875 660.13671875 246.23046875 C659.47671875 246.23046875 658.81671875 246.23046875 658.13671875 246.23046875 Z M656.13671875 248.23046875 C656.46671875 248.89046875 656.79671875 249.55046875 657.13671875 250.23046875 C657.46671875 249.57046875 657.79671875 248.91046875 658.13671875 248.23046875 C657.47671875 248.23046875 656.81671875 248.23046875 656.13671875 248.23046875 Z M376.13671875 402.23046875 C377.13671875 404.23046875 377.13671875 404.23046875 377.13671875 404.23046875 Z M370.13671875 415.23046875 C371.13671875 417.23046875 371.13671875 417.23046875 371.13671875 417.23046875 Z M368.13671875 420.23046875 C369.13671875 422.23046875 369.13671875 422.23046875 369.13671875 422.23046875 Z M357.13671875 449.23046875 C358.13671875 451.23046875 358.13671875 451.23046875 358.13671875 451.23046875 Z M354.13671875 459.23046875 C355.13671875 461.23046875 355.13671875 461.23046875 355.13671875 461.23046875 Z M353.13671875 462.23046875 C354.13671875 464.23046875 354.13671875 464.23046875 354.13671875 464.23046875 Z M352.13671875 466.23046875 C353.13671875 468.23046875 353.13671875 468.23046875 353.13671875 468.23046875 Z M351.13671875 470.23046875 C352.13671875 472.23046875 352.13671875 472.23046875 352.13671875 472.23046875 Z M350.13671875 474.23046875 C351.13671875 476.23046875 351.13671875 476.23046875 351.13671875 476.23046875 Z M348.13671875 482.23046875 C349.13671875 484.23046875 349.13671875 484.23046875 349.13671875 484.23046875 Z M347.13671875 487.23046875 C348.13671875 489.23046875 348.13671875 489.23046875 348.13671875 489.23046875 Z M346.13671875 491.23046875 C347.13671875 493.23046875 347.13671875 493.23046875 347.13671875 493.23046875 Z M345.13671875 495.23046875 C346.13671875 498.23046875 346.13671875 498.23046875 346.13671875 498.23046875 Z M344.13671875 501.23046875 C345.13671875 505.23046875 345.13671875 505.23046875 345.13671875 505.23046875 Z M343.13671875 507.23046875 C344.13671875 509.23046875 344.13671875 509.23046875 344.13671875 509.23046875 Z M342.13671875 513.23046875 C343.13671875 516.23046875 343.13671875 516.23046875 343.13671875 516.23046875 Z M341.13671875 520.23046875 C342.13671875 523.23046875 342.13671875 523.23046875 342.13671875 523.23046875 Z M340.13671875 527.23046875 C340.13671875 528.88046875 340.13671875 530.53046875 340.13671875 532.23046875 C340.46671875 532.23046875 340.79671875 532.23046875 341.13671875 532.23046875 C341.13671875 530.58046875 341.13671875 528.93046875 341.13671875 527.23046875 C340.80671875 527.23046875 340.47671875 527.23046875 340.13671875 527.23046875 Z M339.13671875 536.23046875 C339.13671875 538.21046875 339.13671875 540.19046875 339.13671875 542.23046875 C339.46671875 542.23046875 339.79671875 542.23046875 340.13671875 542.23046875 C340.13671875 540.25046875 340.13671875 538.27046875 340.13671875 536.23046875 C339.80671875 536.23046875 339.47671875 536.23046875 339.13671875 536.23046875 Z M426.13671875 539.23046875 C427.13671875 541.23046875 427.13671875 541.23046875 427.13671875 541.23046875 Z M338.13671875 550.23046875 C338.13671875 552.54046875 338.13671875 554.85046875 338.13671875 557.23046875 C338.46671875 557.23046875 338.79671875 557.23046875 339.13671875 557.23046875 C339.13671875 554.92046875 339.13671875 552.61046875 339.13671875 550.23046875 C338.80671875 550.23046875 338.47671875 550.23046875 338.13671875 550.23046875 Z M420.13671875 552.23046875 C421.13671875 554.23046875 421.13671875 554.23046875 421.13671875 554.23046875 Z M415.13671875 564.23046875 C416.13671875 566.23046875 416.13671875 566.23046875 416.13671875 566.23046875 Z M413.13671875 569.23046875 C414.13671875 571.23046875 414.13671875 571.23046875 414.13671875 571.23046875 Z M412.13671875 572.23046875 C413.13671875 574.23046875 413.13671875 574.23046875 413.13671875 574.23046875 Z M409.13671875 579.23046875 C410.13671875 581.23046875 410.13671875 581.23046875 410.13671875 581.23046875 Z M407.13671875 585.23046875 C408.13671875 587.23046875 408.13671875 587.23046875 408.13671875 587.23046875 Z M406.13671875 588.23046875 C407.13671875 590.23046875 407.13671875 590.23046875 407.13671875 590.23046875 Z M404.13671875 593.23046875 C405.13671875 595.23046875 405.13671875 595.23046875 405.13671875 595.23046875 Z M338.13671875 595.23046875 C338.13671875 597.87046875 338.13671875 600.51046875 338.13671875 603.23046875 C338.46671875 603.23046875 338.79671875 603.23046875 339.13671875 603.23046875 C339.13671875 600.59046875 339.13671875 597.95046875 339.13671875 595.23046875 C338.80671875 595.23046875 338.47671875 595.23046875 338.13671875 595.23046875 Z M403.13671875 596.23046875 C404.13671875 598.23046875 404.13671875 598.23046875 404.13671875 598.23046875 Z M402.13671875 599.23046875 C403.13671875 601.23046875 403.13671875 601.23046875 403.13671875 601.23046875 Z M401.13671875 602.23046875 C402.13671875 604.23046875 402.13671875 604.23046875 402.13671875 604.23046875 Z M400.13671875 605.23046875 C401.13671875 607.23046875 401.13671875 607.23046875 401.13671875 607.23046875 Z M339.13671875 610.23046875 C339.13671875 611.88046875 339.13671875 613.53046875 339.13671875 615.23046875 C339.46671875 615.23046875 339.79671875 615.23046875 340.13671875 615.23046875 C340.13671875 613.58046875 340.13671875 611.93046875 340.13671875 610.23046875 C339.80671875 610.23046875 339.47671875 610.23046875 339.13671875 610.23046875 Z M398.13671875 612.23046875 C399.13671875 614.23046875 399.13671875 614.23046875 399.13671875 614.23046875 Z M397.13671875 615.23046875 C398.13671875 617.23046875 398.13671875 617.23046875 398.13671875 617.23046875 Z M396.13671875 619.23046875 C397.13671875 621.23046875 397.13671875 621.23046875 397.13671875 621.23046875 Z M340.13671875 620.23046875 C341.13671875 624.23046875 341.13671875 624.23046875 341.13671875 624.23046875 Z M341.13671875 628.23046875 C342.13671875 631.23046875 342.13671875 631.23046875 342.13671875 631.23046875 Z M393.13671875 629.23046875 C394.13671875 631.23046875 394.13671875 631.23046875 394.13671875 631.23046875 Z M392.13671875 633.23046875 C393.13671875 635.23046875 393.13671875 635.23046875 393.13671875 635.23046875 Z M342.13671875 635.23046875 C343.13671875 639.23046875 343.13671875 639.23046875 343.13671875 639.23046875 Z M391.13671875 637.23046875 C392.13671875 639.23046875 392.13671875 639.23046875 392.13671875 639.23046875 Z M390.13671875 641.23046875 C391.13671875 643.23046875 391.13671875 643.23046875 391.13671875 643.23046875 Z M343.13671875 642.23046875 C344.13671875 645.23046875 344.13671875 645.23046875 344.13671875 645.23046875 Z M389.13671875 644.23046875 C390.13671875 647.23046875 390.13671875 647.23046875 390.13671875 647.23046875 Z M344.13671875 647.23046875 C345.13671875 650.23046875 345.13671875 650.23046875 345.13671875 650.23046875 Z M388.13671875 649.23046875 C389.13671875 652.23046875 389.13671875 652.23046875 389.13671875 652.23046875 Z M345.13671875 653.23046875 C346.13671875 656.23046875 346.13671875 656.23046875 346.13671875 656.23046875 Z M387.13671875 653.23046875 C388.13671875 656.23046875 388.13671875 656.23046875 388.13671875 656.23046875 Z M386.13671875 658.23046875 C387.13671875 661.23046875 387.13671875 661.23046875 387.13671875 661.23046875 Z M346.13671875 659.23046875 C347.13671875 661.23046875 347.13671875 661.23046875 347.13671875 661.23046875 Z M347.13671875 663.23046875 C348.13671875 665.23046875 348.13671875 665.23046875 348.13671875 665.23046875 Z M385.13671875 663.23046875 C386.13671875 666.23046875 386.13671875 666.23046875 386.13671875 666.23046875 Z M348.13671875 667.23046875 C349.13671875 669.23046875 349.13671875 669.23046875 349.13671875 669.23046875 Z M384.13671875 668.23046875 C385.13671875 671.23046875 385.13671875 671.23046875 385.13671875 671.23046875 Z M349.13671875 671.23046875 C350.13671875 673.23046875 350.13671875 673.23046875 350.13671875 673.23046875 Z M383.13671875 674.23046875 C384.13671875 676.23046875 384.13671875 676.23046875 384.13671875 676.23046875 Z M350.13671875 676.23046875 C351.13671875 678.23046875 351.13671875 678.23046875 351.13671875 678.23046875 Z M382.13671875 679.23046875 C383.13671875 682.23046875 383.13671875 682.23046875 383.13671875 682.23046875 Z M351.13671875 680.23046875 C352.13671875 682.23046875 352.13671875 682.23046875 352.13671875 682.23046875 Z M352.13671875 683.23046875 C353.13671875 685.23046875 353.13671875 685.23046875 353.13671875 685.23046875 Z M381.13671875 685.23046875 C382.13671875 689.23046875 382.13671875 689.23046875 382.13671875 689.23046875 Z M353.13671875 687.23046875 C354.13671875 689.23046875 354.13671875 689.23046875 354.13671875 689.23046875 Z M380.13671875 692.23046875 C381.13671875 695.23046875 381.13671875 695.23046875 381.13671875 695.23046875 Z M379.13671875 698.23046875 C380.13671875 702.23046875 380.13671875 702.23046875 380.13671875 702.23046875 Z M357.13671875 700.23046875 C358.13671875 702.23046875 358.13671875 702.23046875 358.13671875 702.23046875 Z M358.13671875 703.23046875 C359.13671875 705.23046875 359.13671875 705.23046875 359.13671875 705.23046875 Z M378.13671875 705.23046875 C379.13671875 708.23046875 379.13671875 708.23046875 379.13671875 708.23046875 Z M377.13671875 711.23046875 C377.13671875 712.88046875 377.13671875 714.53046875 377.13671875 716.23046875 C377.46671875 716.23046875 377.79671875 716.23046875 378.13671875 716.23046875 C378.13671875 714.58046875 378.13671875 712.93046875 378.13671875 711.23046875 C377.80671875 711.23046875 377.47671875 711.23046875 377.13671875 711.23046875 Z M363.13671875 716.23046875 C364.13671875 718.23046875 364.13671875 718.23046875 364.13671875 718.23046875 Z M376.13671875 720.23046875 C377.13671875 724.23046875 377.13671875 724.23046875 377.13671875 724.23046875 Z M365.13671875 721.23046875 C366.13671875 723.23046875 366.13671875 723.23046875 366.13671875 723.23046875 Z M375.13671875 728.23046875 C375.13671875 730.54046875 375.13671875 732.85046875 375.13671875 735.23046875 C375.46671875 735.23046875 375.79671875 735.23046875 376.13671875 735.23046875 C376.13671875 732.92046875 376.13671875 730.61046875 376.13671875 728.23046875 C375.80671875 728.23046875 375.47671875 728.23046875 375.13671875 728.23046875 Z M371.13671875 735.23046875 C372.13671875 737.23046875 372.13671875 737.23046875 372.13671875 737.23046875 Z " fill="#275E91" transform="translate(116.86328125,141.76953125)"/>
<path d="M0 0 C1.47709733 -0.00724325 1.47709733 -0.00724325 2.98403502 -0.01463282 C6.29305033 -0.02592991 9.60129736 -0.00856434 12.91027832 0.00863647 C15.27873443 0.00649127 17.64718952 0.00261455 20.01564026 -0.00286865 C25.7864115 -0.01156961 31.55693333 -0.00166955 37.32767689 0.01683195 C44.04639295 0.03759854 50.76505942 0.0374596 57.48380154 0.03648679 C69.4708982 0.03548544 81.45788814 0.05381131 93.44494629 0.08285522 C105.07940617 0.11103027 116.71377213 0.12519677 128.3482666 0.12387085 C129.06482003 0.12379094 129.78137346 0.12371102 130.51964062 0.12362869 C131.23494909 0.12354798 131.95025755 0.12346727 132.68724203 0.12338412 C145.92829392 0.12200458 159.16930586 0.13378374 172.41034481 0.15169055 C177.09480779 0.15772478 181.77926343 0.15984985 186.46372986 0.16075516 C192.7673976 0.16276093 199.07096629 0.17494526 205.37460136 0.19508743 C207.69177583 0.20094028 210.0089617 0.20338759 212.32614326 0.20223236 C215.48193922 0.20125423 218.63745577 0.21252998 221.79321289 0.22705078 C223.17822093 0.22240498 223.17822093 0.22240498 224.59120893 0.21766531 C225.43620467 0.22411421 226.2812004 0.2305631 227.15180206 0.23720741 C228.2444225 0.23932069 228.2444225 0.23932069 229.35911608 0.24147666 C232.80868828 0.66981763 234.8684771 1.88292732 237.12363815 4.49429798 C238.96883774 8.84313201 238.80381567 12.81880759 238.76409912 17.49732971 C238.76900238 19.02070268 238.76900238 19.02070268 238.7740047 20.57485086 C238.78129475 23.98204862 238.76711908 27.38881839 238.75305176 30.79598999 C238.75384248 33.23680189 238.75593928 35.67761367 238.75924683 38.11842346 C238.76385213 44.06146563 238.75457043 50.00439084 238.73895887 55.9474053 C238.72142135 62.86525799 238.71999967 69.78308564 238.71934327 76.7009571 C238.71765554 89.04027983 238.70184298 101.37954372 238.67785645 113.71884155 C238.65458363 125.69964079 238.64042957 137.68040271 238.63684082 149.66122437 C238.63661805 150.39955484 238.63639529 151.13788532 238.63616577 151.89858945 C238.63572318 153.38591633 238.63528115 154.87324321 238.6348397 156.36057009 C238.63462013 157.09420963 238.63440057 157.82784917 238.63417435 158.58372021 C238.63385037 159.68135544 238.63385037 159.68135544 238.63351984 160.80116512 C238.62982184 172.21085602 238.61846333 183.62054089 238.60604395 195.03022518 C238.60160522 199.16929089 238.5981684 203.30835603 238.59542182 207.44742318 C238.59058171 214.62235409 238.58048697 221.79725289 238.56459427 228.97216988 C238.56005964 231.35952874 238.55722987 233.74689151 238.55618668 236.13425446 C238.55444941 239.38039035 238.54658895 242.62645292 238.53704834 245.87257385 C238.53834806 247.3061522 238.53834806 247.3061522 238.53967404 248.76869172 C238.5358329 249.63347242 238.53199175 250.49825313 238.52803421 251.38923931 C238.52616446 252.51408231 238.52616446 252.51408231 238.52425694 253.66164941 C238.39660645 255.49447632 238.39660645 255.49447632 237.39660645 257.49447632 C234.33410645 258.55697632 234.33410645 258.55697632 230.39660645 258.49447632 C222.87506346 253.6913475 216.50495651 245.75457885 210.21472168 239.44296265 C208.33831169 237.56119358 206.45661675 235.68482894 204.57434082 233.80892944 C193.6180655 222.85736985 193.6180655 222.85736985 188.77966309 217.0430603 C186.76411794 214.78629015 184.44940067 212.95084499 182.1204834 211.02816772 C180.33908312 209.44329922 178.84990451 207.77848283 177.3145752 205.95541382 C172.84218121 200.78084095 168.04174804 195.95566871 163.20910645 191.11947632 C162.32029785 190.21842163 161.43148926 189.31736694 160.51574707 188.38900757 C159.65787598 187.52920288 158.80000488 186.66939819 157.9161377 185.78353882 C157.14374756 185.00703979 156.37135742 184.23054077 155.57556152 183.43051147 C152.92680919 181.07705422 150.82321074 179.5722911 147.24816895 179.37728882 C138.31952263 180.34847491 133.80115653 184.9318221 127.7052002 191.18197632 C124.95985847 193.93196329 122.07134449 196.46301537 119.1192627 198.98666382 C117.69251303 200.23547418 116.34481795 201.57394346 115.02160645 202.93197632 C113.39660645 204.49447632 113.39660645 204.49447632 111.39660645 204.49447632 C111.06660645 205.48447632 110.73660645 206.47447632 110.39660645 207.49447632 C108.82299197 208.88808324 107.1866492 210.2114972 105.52160645 211.49447632 C100.28145848 215.66756432 95.66134273 220.12546607 90.9708252 224.91635132 C88.1267064 227.76478593 85.1561707 230.39863984 82.09973145 233.01400757 C79.17641791 235.5551448 76.50319624 238.33545459 73.8302002 241.13510132 C72.38742511 242.62307177 70.89507438 244.06260696 69.39660645 245.49447632 C68.73660645 245.49447632 68.07660645 245.49447632 67.39660645 245.49447632 C67.39660645 246.15447632 67.39660645 246.81447632 67.39660645 247.49447632 C66.73660645 247.49447632 66.07660645 247.49447632 65.39660645 247.49447632 C65.1935791 248.0350769 64.99055176 248.57567749 64.78137207 249.13265991 C62.83428002 252.4535641 60.07958687 254.74241537 57.24035645 257.28353882 C50.36571614 263.57147256 43.70761687 270.06142528 37.11535645 276.64291382 C36.62142395 277.13598274 36.12749146 277.62905167 35.61859131 278.13706207 C33.07550348 280.67725242 30.53498204 283.21998669 27.99621582 285.76449585 C25.39670823 288.36975274 22.792661 290.97041898 20.18730927 293.56982994 C18.14871259 295.60479146 16.11252981 297.64215498 14.07704163 299.68022537 C12.65882255 301.09941788 11.23862177 302.5166292 9.81835938 303.93377686 C5.32441669 308.44396433 0.95742122 313.00080538 -3.17504883 317.84594727 C-5.92246539 321.01688768 -8.97486148 323.88248456 -11.97839355 326.80697632 C-14.69439559 329.58764506 -17.22897116 332.47929397 -19.77380371 335.41537476 C-22.69273168 338.73237377 -25.74699022 341.91760996 -28.79089355 345.11947632 C-35.1229471 351.82861514 -41.19472971 358.71026665 -47.1385498 365.76351929 C-49.16050588 368.15279738 -51.20549353 370.52191752 -53.24938965 372.89242554 C-62.13097555 383.20316748 -70.66885808 393.76682931 -79.04089355 404.49349976 C-80.73648799 406.66492038 -82.43566417 408.83351589 -84.13464355 411.00228882 C-85.35359735 412.5620254 -86.57234977 414.12191939 -87.79089355 415.68197632 C-88.34865479 416.39361938 -88.90641602 417.10526245 -89.4810791 417.83847046 C-96.90215584 427.35933874 -103.82321537 437.17559089 -110.47839355 447.24447632 C-111.88323445 449.36303687 -113.28818213 451.48152662 -114.6932373 453.59994507 C-115.36467773 454.61363159 -116.03611816 455.62731812 -116.72790527 456.67172241 C-118.32389464 459.07380899 -119.92944535 461.46867629 -121.5447998 463.85775757 C-147.37459624 502.07466223 -168.20252411 544.058244 -183.60339355 587.49447632 C-183.97174316 588.52701538 -184.34009277 589.55955444 -184.71960449 590.62338257 C-201.75533988 638.79033606 -211.64211644 689.58910926 -215.60339355 740.49447632 C-247.86684004 701.99606932 -252.81712112 624.74357175 -252.85339355 576.68197632 C-252.8540683 575.86454956 -252.85474304 575.0471228 -252.85543823 574.20492554 C-252.80872433 538.05622028 -247.91760642 502.43973003 -238.60339355 467.49447632 C-238.19733887 465.96717896 -238.19733887 465.96717896 -237.78308105 464.4090271 C-233.98966041 450.34988341 -229.36408269 436.86503303 -223.60339355 423.49447632 C-223.27194336 422.71878296 -222.94049316 421.9430896 -222.59899902 421.14389038 C-218.31423528 411.15936519 -213.7061408 401.3604773 -208.73669434 391.69906616 C-207.93458637 390.13873981 -207.13647591 388.57635547 -206.34118652 387.01254272 C-200.65156626 375.83509128 -194.70822089 364.96597815 -187.87145996 354.4480896 C-186.56665232 352.43787189 -185.27725707 350.41838607 -183.9901123 348.39682007 C-169.53068266 325.76260623 -154.09686161 303.88516033 -136.98425293 283.17514038 C-135.12119811 280.90758922 -133.2990202 278.60866284 -131.47839355 276.30697632 C-125.05896787 268.2589437 -118.3552314 260.4324045 -111.54089355 252.71713257 C-109.94193049 250.88283825 -108.36270761 249.03552712 -106.79089355 247.17807007 C-101.83913895 241.33518773 -96.8978882 235.61514397 -91.39245605 230.27963257 C-89.5517909 228.44298633 -87.85784259 226.53091686 -86.16589355 224.55697632 C-82.89328862 220.74763436 -79.37238918 217.24626523 -75.79870605 213.72103882 C-73.77115475 211.66462557 -71.86209794 209.55727648 -69.97839355 207.36947632 C-63.29584867 199.61211652 -63.29584867 199.61211652 -59.60339355 196.49447632 C-58.94339355 196.49447632 -58.28339355 196.49447632 -57.60339355 196.49447632 C-57.36185547 195.92769165 -57.12031738 195.36090698 -56.87145996 194.77694702 C-55.35156252 192.04119015 -53.53344145 190.18231292 -51.31433105 187.97494507 C-50.45452637 187.11707397 -49.59472168 186.25920288 -48.7088623 185.37533569 C-47.80780762 184.4865271 -46.90675293 183.59771851 -45.97839355 182.68197632 C-44.66161621 181.36616577 -44.66161621 181.36616577 -43.3182373 180.02377319 C-38.84933619 175.58475329 -34.3091433 171.30858561 -29.53308105 167.20370483 C-26.00821458 164.08154009 -22.723612 160.71834341 -19.41589355 157.36947632 C-18.73075684 156.67982788 -18.04562012 155.99017944 -17.33972168 155.27963257 C-14.55186843 152.47299686 -11.76862114 149.6619267 -8.9901123 146.84603882 C-5.76567765 143.66909992 -2.41818882 140.63884664 0.93566895 137.59994507 C4.17942599 134.64729442 7.29665607 131.59929318 10.39660645 128.49447632 C12.32494664 126.69114577 14.2589514 124.89872527 16.20910645 123.11947632 C16.73536621 122.63760864 17.26162598 122.15574097 17.80383301 121.65927124 C20.71672323 118.99981138 23.657913 116.38139542 26.64660645 113.80697632 C30.06146336 110.85072622 33.22039821 107.69148195 36.3848877 104.47103882 C38.38278252 102.50805866 40.45234912 100.68526961 42.58410645 98.86947632 C49.5285053 92.94621236 49.5285053 92.94621236 52.70910645 84.74447632 C52.06244239 78.01917014 46.72759345 73.58498995 42.08410645 69.11947632 C38.67156609 65.81623441 35.36213818 62.50200621 32.28381348 58.88168335 C28.0206452 53.98397498 23.43482864 49.44351831 18.8145752 44.88510132 C16.97785572 43.0610144 15.14127108 41.2367917 13.30480957 39.41244507 C10.43235035 36.56376373 7.55735186 33.71766422 4.68005371 30.87387085 C1.88631674 28.11204861 -0.89947551 25.34227933 -3.6854248 22.57260132 C-4.5499678 21.72151794 -5.4145108 20.87043457 -6.30525208 19.99356079 C-7.50241096 18.80147003 -7.50241096 18.80147003 -8.72375488 17.58529663 C-9.42656082 16.88994812 -10.12936676 16.19459961 -10.85346985 15.47817993 C-13.2960445 12.70929112 -14.66522538 10.73111278 -14.47839355 6.99447632 C-11.8926851 -0.39326213 -6.83891574 -0.07619392 0 0 Z " fill="#FDEEDF" transform="translate(707.6033935546875,142.50552368164063)"/>
<path d="M0 0 C1.485 0.99 1.485 0.99 3 2 C3.29764319 4.67755834 3.39653281 7.12454682 3.36914349 9.80490303 C3.37260502 10.62438358 3.37606655 11.44386413 3.37963298 12.28817743 C3.38764217 15.06397078 3.37405873 17.83925336 3.36076355 20.61502075 C3.36207045 22.61315149 3.36469473 24.61128173 3.36853105 26.60940921 C3.37527072 32.12331736 3.3631957 37.63705222 3.34819686 43.15093827 C3.33529071 49.08824568 3.33962211 55.02554262 3.34190369 60.96286011 C3.34347987 71.25735819 3.334139 81.55180346 3.31719017 91.84628677 C3.29945477 102.64614252 3.28789551 113.4459756 3.28463173 124.24584579 C3.28442551 124.91670016 3.28421929 125.58755452 3.28400682 126.2787378 C3.28299186 129.6855016 3.2820877 133.09226542 3.2812262 136.49902926 C3.27492063 160.64536438 3.25469649 184.79166986 3.22631836 208.93798828 C3.19877674 232.39957522 3.17752019 255.86115405 3.16479492 279.32275391 C3.16440034 280.04561392 3.16400576 280.76847392 3.16359923 281.51323878 C3.15964376 288.77232505 3.1558163 296.03141137 3.15208265 303.29049775 C3.14447348 318.07882796 3.13600973 332.86715763 3.12702942 347.65548706 C3.12661755 348.33546912 3.12620568 349.01545118 3.12578133 349.71603875 C3.09816729 395.14403835 3.05056801 440.57202078 3 486 C2.34 486 1.68 486 1 486 C0.67 325.62 0.34 165.24 0 0 Z " fill="#3C678D" transform="translate(876,340)"/>
<path d="M0 0 C0 6.37316138 -7.86215933 11.87781443 -12.24609375 16.265625 C-13.94023325 17.95287676 -15.63726143 19.63714248 -17.33618164 21.31958008 C-20.76326811 24.72454009 -24.03890265 28.19532211 -27.16796875 31.87890625 C-29.6978766 34.80798933 -32.31773765 37.65133041 -34.9375 40.5 C-35.68410889 41.31223022 -35.68410889 41.31223022 -36.44580078 42.14086914 C-37.6297988 43.42792268 -38.81479229 44.71406035 -40 46 C-40.66 45.67 -41.32 45.34 -42 45 C-41.11699219 44.05640625 -40.23398437 43.1128125 -39.32421875 42.140625 C-38.11183475 40.84388501 -36.89960655 39.54699934 -35.6875 38.25 C-35.05320068 37.57130859 -34.41890137 36.89261719 -33.76538086 36.19335938 C-29.83818806 31.98568802 -25.93807116 27.75520489 -22.0625 23.5 C-18.67033787 19.78501131 -15.21573058 16.17792807 -11.625 12.65625 C-9.15628854 10.14006332 -6.86971574 7.47396698 -4.578125 4.796875 C-3.11118731 3.12659942 -1.59043707 1.55211328 0 0 Z " fill="#F5F0E7" transform="translate(644,343)"/>
<path d="M0 0 C0 3.86422892 -1.54102637 4.89217929 -4.16644287 7.53198242 C-4.76636047 8.11955322 -5.36627808 8.70712402 -5.984375 9.3125 C-6.59637756 9.92262939 -7.20838013 10.53275879 -7.83892822 11.16137695 C-9.13685219 12.45257165 -10.43837219 13.74015999 -11.74316406 15.02441406 C-13.73495731 16.98519155 -15.71601386 18.95630604 -17.6953125 20.9296875 C-18.95771542 22.18291441 -20.22071715 23.43553848 -21.484375 24.6875 C-22.07619568 25.2750708 -22.66801636 25.8626416 -23.277771 26.46801758 C-26.05674862 29.19934188 -28.78765639 31.77046415 -32 34 C-32.66 33.67 -33.32 33.34 -34 33 C-21.39754098 20.22464139 -21.39754098 20.22464139 -15.1875 14.96484375 C-9.90238958 10.21768207 -4.98746242 5.05588797 0 0 Z " fill="#F3EFE8" transform="translate(693,295)"/>
<path d="M0 0 C0.66 0.33 1.32 0.66 2 1 C1.43152344 1.556875 0.86304688 2.11375 0.27734375 2.6875 C-4.07597106 6.98994135 -8.24417481 11.35778727 -12.2265625 16.00390625 C-15.32528789 19.49167866 -18.66344637 22.74144373 -22 26 C-22.33 25.01 -22.66 24.02 -23 23 C-15.41 15.41 -7.82 7.82 0 0 Z " fill="#275885" transform="translate(733,431)"/>
<path d="M0 0 C0.66 0.33 1.32 0.66 2 1 C-0.55000905 3.63738416 -3.11703788 6.25755816 -5.6875 8.875 C-6.7693457 9.99455078 -6.7693457 9.99455078 -7.87304688 11.13671875 C-8.57880859 11.85214844 -9.28457031 12.56757813 -10.01171875 13.3046875 C-10.65584717 13.96452637 -11.29997559 14.62436523 -11.96362305 15.30419922 C-14.19953832 17.16616631 -16.26046651 18.06394072 -19 19 C-18.2575 18.278125 -17.515 17.55625 -16.75 16.8125 C-14.04961342 14.16513453 -14.04961342 14.16513453 -12.1875 11.625 C-9.64721483 8.57665779 -6.82085859 6.11737212 -3.8046875 3.55078125 C-1.92288746 1.97318991 -1.92288746 1.97318991 0 0 Z " fill="#F4EFE7" transform="translate(713,276)"/>
<path d="M0 0 C0.33 0.66 0.66 1.32 1 2 C-2.72346836 6.42094803 -6.29521038 10.57833482 -11 14 C-11.66 13.67 -12.32 13.34 -13 13 C-11.625 11.5 -11.625 11.5 -10 10 C-9.34 10 -8.68 10 -8 10 C-7.79375 9.46375 -7.5875 8.9275 -7.375 8.375 C-5.42003056 4.9982346 -2.81776305 2.69525161 0 0 Z " fill="#F1EDE9" transform="translate(658,329)"/>
<path d="M0 0 C0.33 0.66 0.66 1.32 1 2 C-0.09346881 3.34212062 -1.2001575 4.67347975 -2.3125 6 C-3.23482422 7.11375 -3.23482422 7.11375 -4.17578125 8.25 C-6 10 -6 10 -9 10 C-6.03 6.7 -3.06 3.4 0 0 Z " fill="#F4EFE6" transform="translate(597,394)"/>
<path d="M0 0 C0.99 0.33 1.98 0.66 3 1 C0.03 3.64 -2.94 6.28 -6 9 C-6.66 8.67 -7.32 8.34 -8 8 C-5.36 5.36 -2.72 2.72 0 0 Z " fill="#3D668E" transform="translate(795,370)"/>
<path d="M0 0 C0.33 0 0.66 0 1 0 C1.63934602 5.11476819 -0.59466453 8.67254378 -3 13 C-3.66 13 -4.32 13 -5 13 C-4.54554036 11.58208592 -4.08625056 10.16571954 -3.625 8.75 C-3.24214844 7.56664062 -3.24214844 7.56664062 -2.8515625 6.359375 C-2.04826333 4.13372042 -1.10288338 2.09068328 0 0 Z " fill="#F1F1EB" transform="translate(485,564)"/>
<path d="M0 0 C0.66 0.33 1.32 0.66 2 1 C-1.465 3.97 -1.465 3.97 -5 7 C-5.66 6.67 -6.32 6.34 -7 6 C-4.69 4.02 -2.38 2.04 0 0 Z " fill="#35628D" transform="translate(813,354)"/>
</svg>
