<?xml version="1.0" encoding="UTF-8"?>
<svg xmlns="http://www.w3.org/2000/svg" xmlns:xlink="http://www.w3.org/1999/xlink" width="128px" height="128px" viewBox="0 0 128 128" version="1.1">
<g id="surface1">
<path style=" stroke:none;fill-rule:nonzero;fill:rgb(15.294118%,36.862746%,56.862748%);fill-opacity:1;" d="M 14.609375 17.722656 C 14.691406 17.722656 14.773438 17.722656 14.855469 17.722656 C 15.125 17.722656 15.394531 17.722656 15.664062 17.726562 C 15.855469 17.726562 16.046875 17.730469 16.238281 17.730469 C 16.824219 17.734375 17.414062 17.742188 18 17.75 C 18.085938 17.75 18.171875 17.753906 18.261719 17.753906 C 29.371094 17.914062 40.535156 19.359375 57.875 27.625 C 57.957031 27.679688 58.039062 27.734375 58.125 27.789062 C 58.90625 28.308594 59.65625 28.855469 60.375 29.460938 C 60.671875 29.65625 60.898438 29.71875 61.25 29.75 C 61.714844 29.507812 62.042969 29.214844 62.402344 28.835938 C 62.839844 28.398438 63.300781 28.023438 63.796875 27.65625 C 63.882812 27.59375 63.96875 27.527344 64.058594 27.460938 C 69.78125 23.273438 76.863281 20.476562 83.71875 18.8125 C 83.808594 18.789062 83.894531 18.769531 83.988281 18.746094 C 85.8125 18.308594 85.8125 18.308594 86.625 18.25 C 86.667969 18.292969 86.707031 18.332031 86.75 18.375 C 86.808594 18.292969 86.867188 18.210938 86.925781 18.128906 C 87.410156 17.75 87.847656 17.804688 88.449219 17.8125 C 88.636719 17.8125 88.636719 17.8125 88.824219 17.8125 C 89.238281 17.808594 89.652344 17.8125 90.0625 17.8125 C 90.359375 17.8125 90.65625 17.8125 90.953125 17.8125 C 91.671875 17.8125 92.394531 17.8125 93.117188 17.816406 C 93.957031 17.816406 94.796875 17.816406 95.636719 17.816406 C 97.132812 17.816406 98.632812 17.820312 100.132812 17.824219 C 101.585938 17.828125 103.039062 17.828125 104.492188 17.828125 C 104.582031 17.828125 104.671875 17.828125 104.765625 17.828125 C 104.855469 17.828125 104.945312 17.828125 105.035156 17.828125 C 106.691406 17.828125 108.347656 17.828125 110 17.832031 C 110.585938 17.832031 111.171875 17.832031 111.757812 17.832031 C 112.546875 17.832031 113.335938 17.835938 114.121094 17.835938 C 114.410156 17.839844 114.703125 17.839844 114.992188 17.839844 C 115.386719 17.839844 115.78125 17.839844 116.175781 17.839844 C 116.347656 17.839844 116.347656 17.839844 116.523438 17.839844 C 116.628906 17.839844 116.734375 17.84375 116.84375 17.84375 C 116.933594 17.84375 117.027344 17.84375 117.121094 17.84375 C 117.550781 17.898438 117.808594 18.046875 118.089844 18.375 C 118.320312 18.917969 118.300781 19.414062 118.296875 20 C 118.296875 20.128906 118.296875 20.253906 118.296875 20.386719 C 118.296875 20.8125 118.296875 21.238281 118.292969 21.664062 C 118.292969 21.96875 118.292969 22.273438 118.296875 22.578125 C 118.296875 23.320312 118.292969 24.0625 118.292969 24.804688 C 118.289062 25.671875 118.289062 26.535156 118.289062 27.402344 C 118.289062 28.941406 118.289062 30.484375 118.285156 32.027344 C 118.28125 33.527344 118.28125 35.023438 118.28125 36.519531 C 118.28125 36.613281 118.28125 36.707031 118.28125 36.800781 C 118.28125 36.988281 118.28125 37.171875 118.28125 37.359375 C 118.28125 37.496094 118.28125 37.496094 118.28125 37.636719 C 118.28125 37.726562 118.28125 37.820312 118.28125 37.914062 C 118.277344 39.339844 118.277344 40.765625 118.277344 42.191406 C 118.277344 42.710938 118.273438 43.226562 118.273438 43.742188 C 118.273438 44.640625 118.273438 45.539062 118.269531 46.433594 C 118.269531 46.734375 118.269531 47.03125 118.269531 47.328125 C 118.269531 47.734375 118.269531 48.140625 118.265625 48.546875 C 118.269531 48.726562 118.269531 48.726562 118.269531 48.910156 C 118.265625 49.015625 118.265625 49.125 118.265625 49.238281 C 118.265625 49.378906 118.265625 49.378906 118.265625 49.519531 C 118.25 49.75 118.25 49.75 118.125 50 C 117.742188 50.132812 117.742188 50.132812 117.25 50.125 C 116.308594 49.523438 115.511719 48.53125 114.726562 47.742188 C 114.492188 47.507812 114.257812 47.273438 114.023438 47.039062 C 112.652344 45.671875 112.652344 45.671875 112.046875 44.945312 C 111.796875 44.664062 111.511719 44.4375 111.222656 44.199219 C 110.816406 43.835938 110.476562 43.414062 110.125 43 C 110.082031 42.957031 110.042969 42.917969 110 42.875 C 110 43.003906 110 43.128906 110 43.261719 C 109.996094 48.882812 109.992188 54.5 109.984375 60.121094 C 109.984375 60.207031 109.984375 60.292969 109.984375 60.378906 C 109.984375 62.226562 109.980469 64.074219 109.976562 65.921875 C 109.976562 66.828125 109.976562 67.734375 109.972656 68.640625 C 109.972656 68.734375 109.972656 68.824219 109.972656 68.914062 C 109.96875 71.839844 109.96875 74.765625 109.964844 77.691406 C 109.964844 80.695312 109.960938 83.699219 109.957031 86.703125 C 109.957031 87.128906 109.953125 87.554688 109.953125 87.976562 C 109.953125 88.101562 109.953125 88.101562 109.953125 88.230469 C 109.953125 89.492188 109.949219 90.753906 109.949219 92.015625 C 109.953125 93.449219 109.949219 94.886719 109.945312 96.320312 C 109.945312 97.054688 109.941406 97.785156 109.945312 98.519531 C 109.945312 99.1875 109.945312 99.859375 109.941406 100.527344 C 109.941406 100.773438 109.941406 101.015625 109.941406 101.257812 C 109.941406 101.585938 109.941406 101.917969 109.9375 102.246094 C 109.941406 102.339844 109.941406 102.4375 109.941406 102.535156 C 109.933594 102.96875 109.90625 103.207031 109.640625 103.558594 C 109.304688 103.800781 109.0625 103.839844 108.648438 103.882812 C 108.5 103.902344 108.351562 103.917969 108.199219 103.9375 C 107.953125 103.960938 107.953125 103.960938 107.707031 103.988281 C 107.535156 104.007812 107.363281 104.023438 107.1875 104.042969 C 106.722656 104.097656 106.253906 104.148438 105.785156 104.195312 C 105.292969 104.246094 104.800781 104.300781 104.308594 104.355469 C 101.953125 104.617188 99.59375 104.859375 97.238281 105.101562 C 96.96875 105.128906 96.699219 105.15625 96.429688 105.183594 C 96.253906 105.203125 96.074219 105.21875 95.898438 105.238281 C 93.214844 105.515625 90.535156 105.796875 87.875 106.25 C 87.71875 106.277344 87.566406 106.300781 87.40625 106.328125 C 82.578125 107.164062 77.972656 108.78125 73.5 110.75 C 73.351562 110.816406 73.351562 110.816406 73.199219 110.882812 C 70.734375 111.96875 68.398438 113.363281 66.179688 114.882812 C 66.054688 114.96875 66.054688 114.96875 65.929688 115.054688 C 65.128906 115.609375 64.359375 116.207031 63.59375 116.8125 C 63.503906 116.882812 63.414062 116.953125 63.320312 117.027344 C 63.242188 117.09375 63.160156 117.15625 63.078125 117.222656 C 62.667969 117.53125 62.382812 117.542969 61.875 117.5 C 61.570312 117.359375 61.300781 117.21875 61.015625 117.046875 C 60.929688 116.996094 60.84375 116.949219 60.757812 116.898438 C 60.460938 116.722656 60.167969 116.550781 59.875 116.375 C 59.394531 116.09375 58.917969 115.8125 58.4375 115.53125 C 58.3125 115.457031 58.183594 115.382812 58.054688 115.304688 C 56.78125 114.566406 55.492188 113.863281 54.195312 113.171875 C 53.925781 113.027344 53.664062 112.882812 53.402344 112.734375 C 47.652344 109.519531 41.046875 107.667969 34.625 106.375 C 34.535156 106.355469 34.445312 106.339844 34.351562 106.320312 C 28.609375 105.171875 22.757812 104.664062 16.941406 104.078125 C 16.84375 104.070312 16.75 104.058594 16.652344 104.050781 C 16.378906 104.023438 16.105469 103.996094 15.835938 103.96875 C 15.707031 103.957031 15.707031 103.957031 15.582031 103.945312 C 14.976562 103.882812 14.371094 103.832031 13.765625 103.785156 C 13.398438 103.734375 13.15625 103.617188 12.875 103.375 C 12.753906 103.015625 12.734375 102.789062 12.734375 102.414062 C 12.734375 102.292969 12.734375 102.171875 12.734375 102.046875 C 12.734375 101.914062 12.734375 101.777344 12.734375 101.640625 C 12.734375 101.496094 12.734375 101.355469 12.734375 101.207031 C 12.734375 100.8125 12.734375 100.414062 12.734375 100.015625 C 12.734375 99.582031 12.734375 99.152344 12.734375 98.71875 C 12.730469 97.960938 12.730469 97.203125 12.730469 96.445312 C 12.730469 95.320312 12.730469 94.191406 12.730469 93.066406 C 12.730469 90.9375 12.730469 88.808594 12.730469 86.679688 C 12.730469 85.035156 12.730469 83.390625 12.726562 81.746094 C 12.726562 81.273438 12.726562 80.800781 12.726562 80.328125 C 12.726562 80.210938 12.726562 80.09375 12.726562 79.972656 C 12.726562 76.667969 12.726562 73.359375 12.726562 70.054688 C 12.726562 69.929688 12.726562 69.804688 12.726562 69.675781 C 12.726562 69.042969 12.726562 68.410156 12.726562 67.777344 C 12.726562 67.652344 12.726562 67.527344 12.726562 67.398438 C 12.726562 67.144531 12.726562 66.890625 12.726562 66.636719 C 12.726562 62.683594 12.726562 58.734375 12.722656 54.78125 C 12.722656 50.34375 12.722656 45.90625 12.722656 41.472656 C 12.722656 41 12.722656 40.527344 12.722656 40.054688 C 12.722656 39.9375 12.722656 39.820312 12.722656 39.699219 C 12.722656 37.824219 12.71875 35.949219 12.71875 34.070312 C 12.71875 32.1875 12.71875 30.300781 12.71875 28.417969 C 12.71875 27.296875 12.71875 26.175781 12.71875 25.054688 C 12.71875 24.308594 12.71875 23.5625 12.71875 22.8125 C 12.71875 22.386719 12.71875 21.960938 12.71875 21.535156 C 12.71875 21.074219 12.71875 20.617188 12.71875 20.15625 C 12.71875 20.023438 12.71875 19.890625 12.71875 19.753906 C 12.722656 18.574219 12.722656 18.574219 13 18 C 13.527344 17.734375 14.023438 17.71875 14.609375 17.722656 Z M 95 28 C 95 28.246094 95 28.496094 95 28.75 C 95.042969 28.75 95.082031 28.75 95.125 28.75 C 95.125 28.503906 95.125 28.253906 95.125 28 C 95.082031 28 95.042969 28 95 28 Z M 106.375 40.125 C 106.375 40.167969 106.375 40.207031 106.375 40.25 C 106.621094 40.25 106.871094 40.25 107.125 40.25 C 107.125 40.207031 107.125 40.167969 107.125 40.125 C 106.878906 40.125 106.628906 40.125 106.375 40.125 Z M 96.875 48.5 C 96.917969 48.582031 96.957031 48.664062 97 48.75 C 97.042969 48.667969 97.082031 48.585938 97.125 48.5 C 97.042969 48.5 96.960938 48.5 96.875 48.5 Z M 96.625 48.75 C 96.667969 48.832031 96.707031 48.914062 96.75 49 C 96.792969 48.917969 96.832031 48.835938 96.875 48.75 C 96.792969 48.75 96.710938 48.75 96.625 48.75 Z M 61.625 68 C 61.75 68.25 61.75 68.25 61.75 68.25 Z M 60.875 69.625 C 61 69.875 61 69.875 61 69.875 Z M 60.625 70.25 C 60.75 70.5 60.75 70.5 60.75 70.5 Z M 59.25 73.875 C 59.375 74.125 59.375 74.125 59.375 74.125 Z M 58.875 75.125 C 59 75.375 59 75.375 59 75.375 Z M 58.75 75.5 C 58.875 75.75 58.875 75.75 58.875 75.75 Z M 58.625 76 C 58.75 76.25 58.75 76.25 58.75 76.25 Z M 58.5 76.5 C 58.625 76.75 58.625 76.75 58.625 76.75 Z M 58.375 77 C 58.5 77.25 58.5 77.25 58.5 77.25 Z M 58.125 78 C 58.25 78.25 58.25 78.25 58.25 78.25 Z M 58 78.625 C 58.125 78.875 58.125 78.875 58.125 78.875 Z M 57.875 79.125 C 58 79.375 58 79.375 58 79.375 Z M 57.75 79.625 C 57.875 80 57.875 80 57.875 80 Z M 57.625 80.375 C 57.75 80.875 57.75 80.875 57.75 80.875 Z M 57.5 81.125 C 57.625 81.375 57.625 81.375 57.625 81.375 Z M 57.375 81.875 C 57.5 82.25 57.5 82.25 57.5 82.25 Z M 57.25 82.75 C 57.375 83.125 57.375 83.125 57.375 83.125 Z M 57.125 83.625 C 57.125 83.832031 57.125 84.039062 57.125 84.25 C 57.167969 84.25 57.207031 84.25 57.25 84.25 C 57.25 84.042969 57.25 83.835938 57.25 83.625 C 57.207031 83.625 57.167969 83.625 57.125 83.625 Z M 57 84.75 C 57 84.996094 57 85.246094 57 85.5 C 57.042969 85.5 57.082031 85.5 57.125 85.5 C 57.125 85.253906 57.125 85.003906 57.125 84.75 C 57.082031 84.75 57.042969 84.75 57 84.75 Z M 67.875 85.125 C 68 85.375 68 85.375 68 85.375 Z M 56.875 86.5 C 56.875 86.789062 56.875 87.078125 56.875 87.375 C 56.917969 87.375 56.957031 87.375 57 87.375 C 57 87.085938 57 86.796875 57 86.5 C 56.957031 86.5 56.917969 86.5 56.875 86.5 Z M 67.125 86.75 C 67.25 87 67.25 87 67.25 87 Z M 66.5 88.25 C 66.625 88.5 66.625 88.5 66.625 88.5 Z M 66.25 88.875 C 66.375 89.125 66.375 89.125 66.375 89.125 Z M 66.125 89.25 C 66.25 89.5 66.25 89.5 66.25 89.5 Z M 65.75 90.125 C 65.875 90.375 65.875 90.375 65.875 90.375 Z M 65.5 90.875 C 65.625 91.125 65.625 91.125 65.625 91.125 Z M 65.375 91.25 C 65.5 91.5 65.5 91.5 65.5 91.5 Z M 65.125 91.875 C 65.25 92.125 65.25 92.125 65.25 92.125 Z M 56.875 92.125 C 56.875 92.453125 56.875 92.785156 56.875 93.125 C 56.917969 93.125 56.957031 93.125 57 93.125 C 57 92.796875 57 92.464844 57 92.125 C 56.957031 92.125 56.917969 92.125 56.875 92.125 Z M 65 92.25 C 65.125 92.5 65.125 92.5 65.125 92.5 Z M 64.875 92.625 C 65 92.875 65 92.875 65 92.875 Z M 64.75 93 C 64.875 93.25 64.875 93.25 64.875 93.25 Z M 64.625 93.375 C 64.75 93.625 64.75 93.625 64.75 93.625 Z M 57 94 C 57 94.207031 57 94.414062 57 94.625 C 57.042969 94.625 57.082031 94.625 57.125 94.625 C 57.125 94.417969 57.125 94.210938 57.125 94 C 57.082031 94 57.042969 94 57 94 Z M 64.375 94.25 C 64.5 94.5 64.5 94.5 64.5 94.5 Z M 64.25 94.625 C 64.375 94.875 64.375 94.875 64.375 94.875 Z M 64.125 95.125 C 64.25 95.375 64.25 95.375 64.25 95.375 Z M 57.125 95.25 C 57.25 95.75 57.25 95.75 57.25 95.75 Z M 57.25 96.25 C 57.375 96.625 57.375 96.625 57.375 96.625 Z M 63.75 96.375 C 63.875 96.625 63.875 96.625 63.875 96.625 Z M 63.625 96.875 C 63.75 97.125 63.75 97.125 63.75 97.125 Z M 57.375 97.125 C 57.5 97.625 57.5 97.625 57.5 97.625 Z M 63.5 97.375 C 63.625 97.625 63.625 97.625 63.625 97.625 Z M 63.375 97.875 C 63.5 98.125 63.5 98.125 63.5 98.125 Z M 57.5 98 C 57.625 98.375 57.625 98.375 57.625 98.375 Z M 63.25 98.25 C 63.375 98.625 63.375 98.625 63.375 98.625 Z M 57.625 98.625 C 57.75 99 57.75 99 57.75 99 Z M 63.125 98.875 C 63.25 99.25 63.25 99.25 63.25 99.25 Z M 57.75 99.375 C 57.875 99.75 57.875 99.75 57.875 99.75 Z M 63 99.375 C 63.125 99.75 63.125 99.75 63.125 99.75 Z M 62.875 100 C 63 100.375 63 100.375 63 100.375 Z M 57.875 100.125 C 58 100.375 58 100.375 58 100.375 Z M 58 100.625 C 58.125 100.875 58.125 100.875 58.125 100.875 Z M 62.75 100.625 C 62.875 101 62.875 101 62.875 101 Z M 58.125 101.125 C 58.25 101.375 58.25 101.375 58.25 101.375 Z M 62.625 101.25 C 62.75 101.625 62.75 101.625 62.75 101.625 Z M 58.25 101.625 C 58.375 101.875 58.375 101.875 58.375 101.875 Z M 62.5 102 C 62.625 102.25 62.625 102.25 62.625 102.25 Z M 58.375 102.25 C 58.5 102.5 58.5 102.5 58.5 102.5 Z M 62.375 102.625 C 62.5 103 62.5 103 62.5 103 Z M 58.5 102.75 C 58.625 103 58.625 103 58.625 103 Z M 58.625 103.125 C 58.75 103.375 58.75 103.375 58.75 103.375 Z M 62.25 103.375 C 62.375 103.875 62.375 103.875 62.375 103.875 Z M 58.75 103.625 C 58.875 103.875 58.875 103.875 58.875 103.875 Z M 62.125 104.25 C 62.25 104.625 62.25 104.625 62.25 104.625 Z M 62 105 C 62.125 105.5 62.125 105.5 62.125 105.5 Z M 59.25 105.25 C 59.375 105.5 59.375 105.5 59.375 105.5 Z M 59.375 105.625 C 59.5 105.875 59.5 105.875 59.5 105.875 Z M 61.875 105.875 C 62 106.25 62 106.25 62 106.25 Z M 61.75 106.625 C 61.75 106.832031 61.75 107.039062 61.75 107.25 C 61.792969 107.25 61.832031 107.25 61.875 107.25 C 61.875 107.042969 61.875 106.835938 61.875 106.625 C 61.832031 106.625 61.792969 106.625 61.75 106.625 Z M 60 107.25 C 60.125 107.5 60.125 107.5 60.125 107.5 Z M 61.625 107.75 C 61.75 108.25 61.75 108.25 61.75 108.25 Z M 60.25 107.875 C 60.375 108.125 60.375 108.125 60.375 108.125 Z M 61.5 108.75 C 61.5 109.039062 61.5 109.328125 61.5 109.625 C 61.542969 109.625 61.582031 109.625 61.625 109.625 C 61.625 109.335938 61.625 109.046875 61.625 108.75 C 61.582031 108.75 61.542969 108.75 61.5 108.75 Z M 61 109.625 C 61.125 109.875 61.125 109.875 61.125 109.875 Z M 61 109.625 "/>
<path style=" stroke:none;fill-rule:nonzero;fill:rgb(99.215686%,93.333334%,87.450981%);fill-opacity:1;" d="M 88.449219 17.8125 C 88.636719 17.8125 88.636719 17.8125 88.824219 17.8125 C 89.238281 17.808594 89.652344 17.8125 90.0625 17.8125 C 90.359375 17.8125 90.65625 17.8125 90.953125 17.8125 C 91.671875 17.8125 92.394531 17.8125 93.117188 17.816406 C 93.957031 17.816406 94.796875 17.816406 95.636719 17.816406 C 97.132812 17.816406 98.632812 17.820312 100.132812 17.824219 C 101.585938 17.828125 103.039062 17.828125 104.492188 17.828125 C 104.582031 17.828125 104.671875 17.828125 104.765625 17.828125 C 104.855469 17.828125 104.945312 17.828125 105.035156 17.828125 C 106.691406 17.828125 108.347656 17.828125 110 17.832031 C 110.585938 17.832031 111.171875 17.832031 111.757812 17.832031 C 112.546875 17.832031 113.335938 17.835938 114.121094 17.835938 C 114.410156 17.839844 114.703125 17.839844 114.992188 17.839844 C 115.386719 17.839844 115.78125 17.839844 116.175781 17.839844 C 116.347656 17.839844 116.347656 17.839844 116.523438 17.839844 C 116.628906 17.839844 116.734375 17.84375 116.84375 17.84375 C 116.980469 17.84375 116.980469 17.84375 117.121094 17.84375 C 117.550781 17.898438 117.808594 18.046875 118.089844 18.375 C 118.320312 18.917969 118.300781 19.414062 118.296875 20 C 118.296875 20.191406 118.296875 20.191406 118.296875 20.386719 C 118.296875 20.8125 118.296875 21.238281 118.292969 21.664062 C 118.292969 21.96875 118.292969 22.273438 118.296875 22.578125 C 118.296875 23.320312 118.292969 24.0625 118.292969 24.804688 C 118.289062 25.671875 118.289062 26.535156 118.289062 27.402344 C 118.289062 28.941406 118.289062 30.484375 118.285156 32.027344 C 118.28125 33.527344 118.28125 35.023438 118.28125 36.519531 C 118.28125 36.613281 118.28125 36.707031 118.28125 36.800781 C 118.28125 36.988281 118.28125 37.171875 118.28125 37.359375 C 118.28125 37.449219 118.28125 37.542969 118.28125 37.636719 C 118.28125 37.773438 118.28125 37.773438 118.28125 37.914062 C 118.277344 39.339844 118.277344 40.765625 118.277344 42.191406 C 118.277344 42.710938 118.273438 43.226562 118.273438 43.742188 C 118.273438 44.640625 118.273438 45.539062 118.269531 46.433594 C 118.269531 46.734375 118.269531 47.03125 118.269531 47.328125 C 118.269531 47.734375 118.269531 48.140625 118.265625 48.546875 C 118.269531 48.726562 118.269531 48.726562 118.269531 48.910156 C 118.265625 49.015625 118.265625 49.125 118.265625 49.238281 C 118.265625 49.378906 118.265625 49.378906 118.265625 49.519531 C 118.25 49.75 118.25 49.75 118.125 50 C 117.742188 50.132812 117.742188 50.132812 117.25 50.125 C 116.308594 49.523438 115.511719 48.53125 114.726562 47.742188 C 114.492188 47.507812 114.257812 47.273438 114.023438 47.039062 C 112.652344 45.671875 112.652344 45.671875 112.046875 44.945312 C 111.796875 44.660156 111.507812 44.433594 111.214844 44.191406 C 110.992188 43.992188 110.808594 43.785156 110.613281 43.558594 C 110.054688 42.910156 109.457031 42.308594 108.851562 41.703125 C 108.742188 41.589844 108.628906 41.476562 108.515625 41.363281 C 108.40625 41.253906 108.300781 41.148438 108.191406 41.035156 C 108.09375 40.9375 107.996094 40.84375 107.898438 40.742188 C 107.566406 40.449219 107.304688 40.257812 106.855469 40.234375 C 105.742188 40.355469 105.175781 40.929688 104.414062 41.710938 C 104.070312 42.054688 103.710938 42.371094 103.339844 42.6875 C 103.160156 42.84375 102.992188 43.011719 102.828125 43.179688 C 102.625 43.375 102.625 43.375 102.375 43.375 C 102.332031 43.5 102.292969 43.621094 102.25 43.75 C 102.054688 43.925781 101.847656 44.089844 101.640625 44.25 C 100.984375 44.773438 100.40625 45.328125 99.820312 45.929688 C 99.464844 46.285156 99.09375 46.613281 98.714844 46.941406 C 98.347656 47.257812 98.011719 47.605469 97.679688 47.957031 C 97.5 48.140625 97.3125 48.320312 97.125 48.5 C 97.042969 48.5 96.960938 48.5 96.875 48.5 C 96.875 48.582031 96.875 48.664062 96.875 48.75 C 96.792969 48.75 96.710938 48.75 96.625 48.75 C 96.601562 48.816406 96.574219 48.886719 96.546875 48.953125 C 96.304688 49.371094 95.960938 49.65625 95.605469 49.972656 C 94.746094 50.757812 93.914062 51.570312 93.089844 52.394531 C 93.027344 52.457031 92.964844 52.515625 92.902344 52.582031 C 92.585938 52.898438 92.265625 53.214844 91.949219 53.535156 C 91.625 53.859375 91.300781 54.183594 90.972656 54.507812 C 90.71875 54.765625 90.464844 55.019531 90.210938 55.273438 C 90.03125 55.449219 89.855469 55.628906 89.675781 55.804688 C 89.117188 56.367188 88.570312 56.9375 88.054688 57.542969 C 87.710938 57.941406 87.328125 58.296875 86.953125 58.664062 C 86.613281 59.011719 86.296875 59.375 85.980469 59.738281 C 85.613281 60.15625 85.230469 60.554688 84.851562 60.953125 C 84.058594 61.792969 83.300781 62.652344 82.558594 63.535156 C 82.304688 63.832031 82.050781 64.128906 81.792969 64.425781 C 80.683594 65.714844 79.617188 67.035156 78.570312 68.375 C 78.359375 68.644531 78.144531 68.917969 77.933594 69.1875 C 77.78125 69.382812 77.628906 69.578125 77.476562 69.773438 C 77.40625 69.863281 77.335938 69.953125 77.265625 70.042969 C 76.335938 71.234375 75.472656 72.460938 74.640625 73.71875 C 74.464844 73.984375 74.289062 74.25 74.113281 74.511719 C 74.03125 74.640625 73.945312 74.765625 73.859375 74.898438 C 73.660156 75.199219 73.460938 75.496094 73.257812 75.796875 C 70.027344 80.574219 67.425781 85.820312 65.5 91.25 C 65.453125 91.378906 65.40625 91.507812 65.359375 91.640625 C 63.230469 97.660156 61.996094 104.011719 61.5 110.375 C 57.46875 105.5625 56.847656 95.90625 56.84375 89.898438 C 56.84375 89.796875 56.84375 89.695312 56.84375 89.589844 C 56.847656 85.070312 57.460938 80.617188 58.625 76.25 C 58.675781 76.058594 58.675781 76.058594 58.726562 75.863281 C 59.203125 74.105469 59.78125 72.421875 60.5 70.75 C 60.542969 70.652344 60.582031 70.554688 60.625 70.457031 C 61.160156 69.207031 61.738281 67.984375 62.359375 66.777344 C 62.457031 66.582031 62.558594 66.386719 62.65625 66.191406 C 63.367188 64.792969 64.113281 63.433594 64.964844 62.121094 C 65.128906 61.867188 65.289062 61.617188 65.453125 61.363281 C 67.257812 58.535156 69.1875 55.800781 71.328125 53.210938 C 71.558594 52.925781 71.789062 52.640625 72.015625 52.351562 C 72.816406 51.34375 73.65625 50.367188 74.507812 49.402344 C 74.707031 49.171875 74.90625 48.941406 75.101562 48.710938 C 75.71875 47.980469 76.339844 47.265625 77.027344 46.597656 C 77.257812 46.367188 77.46875 46.128906 77.679688 45.882812 C 78.089844 45.40625 78.527344 44.96875 78.976562 44.527344 C 79.230469 44.269531 79.46875 44.007812 79.703125 43.734375 C 80.539062 42.765625 80.539062 42.765625 81 42.375 C 81.082031 42.375 81.164062 42.375 81.25 42.375 C 81.28125 42.304688 81.308594 42.234375 81.339844 42.160156 C 81.53125 41.816406 81.757812 41.585938 82.035156 41.308594 C 82.144531 41.203125 82.25 41.09375 82.363281 40.984375 C 82.472656 40.875 82.585938 40.761719 82.703125 40.648438 C 82.867188 40.484375 82.867188 40.484375 83.035156 40.316406 C 83.59375 39.761719 84.160156 39.226562 84.757812 38.714844 C 85.199219 38.324219 85.609375 37.902344 86.023438 37.484375 C 86.109375 37.398438 86.195312 37.3125 86.28125 37.222656 C 86.632812 36.871094 86.980469 36.519531 87.328125 36.167969 C 87.730469 35.773438 88.148438 35.394531 88.566406 35.011719 C 88.972656 34.644531 89.363281 34.261719 89.75 33.875 C 89.992188 33.648438 90.234375 33.425781 90.476562 33.203125 C 90.542969 33.144531 90.609375 33.082031 90.675781 33.019531 C 91.039062 32.6875 91.40625 32.359375 91.78125 32.039062 C 92.207031 31.667969 92.601562 31.273438 93 30.871094 C 93.25 30.625 93.507812 30.398438 93.773438 30.171875 C 94.640625 29.429688 94.640625 29.429688 95.039062 28.40625 C 94.957031 27.566406 94.292969 27.011719 93.710938 26.453125 C 93.285156 26.039062 92.871094 25.625 92.484375 25.171875 C 91.953125 24.5625 91.378906 23.992188 90.800781 23.425781 C 90.574219 23.195312 90.34375 22.96875 90.113281 22.738281 C 89.753906 22.382812 89.394531 22.027344 89.035156 21.671875 C 88.6875 21.328125 88.339844 20.980469 87.988281 20.636719 C 87.882812 20.527344 87.773438 20.421875 87.664062 20.3125 C 87.511719 20.164062 87.511719 20.164062 87.359375 20.011719 C 87.273438 19.925781 87.183594 19.835938 87.09375 19.746094 C 86.789062 19.402344 86.617188 19.15625 86.640625 18.6875 C 86.964844 17.765625 87.59375 17.804688 88.449219 17.8125 Z M 88.449219 17.8125 "/>
<path style=" stroke:none;fill-rule:nonzero;fill:rgb(23.529412%,40.392157%,55.29412%);fill-opacity:1;" d="M 109.5 42.5 C 109.6875 42.625 109.6875 42.625 109.875 42.75 C 109.914062 43.085938 109.925781 43.390625 109.921875 43.726562 C 109.921875 43.828125 109.921875 43.929688 109.921875 44.035156 C 109.921875 44.382812 109.921875 44.730469 109.921875 45.078125 C 109.921875 45.328125 109.921875 45.578125 109.921875 45.828125 C 109.921875 46.515625 109.921875 47.203125 109.917969 47.894531 C 109.917969 48.636719 109.917969 49.378906 109.917969 50.121094 C 109.917969 51.40625 109.917969 52.695312 109.914062 53.980469 C 109.914062 55.332031 109.910156 56.679688 109.910156 58.03125 C 109.910156 58.113281 109.910156 58.199219 109.910156 58.285156 C 109.910156 58.710938 109.910156 59.136719 109.910156 59.5625 C 109.910156 62.582031 109.90625 65.597656 109.902344 68.617188 C 109.898438 71.550781 109.898438 74.484375 109.894531 77.414062 C 109.894531 77.503906 109.894531 77.597656 109.894531 77.6875 C 109.894531 78.597656 109.894531 79.503906 109.894531 80.410156 C 109.894531 82.261719 109.890625 84.109375 109.890625 85.957031 C 109.890625 86.042969 109.890625 86.125 109.890625 86.214844 C 109.886719 91.894531 109.882812 97.570312 109.875 103.25 C 109.792969 103.25 109.710938 103.25 109.625 103.25 C 109.582031 83.203125 109.542969 63.15625 109.5 42.5 Z M 109.5 42.5 "/>
<path style=" stroke:none;fill-rule:nonzero;fill:rgb(96.078432%,94.117647%,90.588236%);fill-opacity:1;" d="M 80.5 42.875 C 80.5 43.671875 79.515625 44.359375 78.96875 44.90625 C 78.757812 45.117188 78.546875 45.328125 78.332031 45.539062 C 77.90625 45.964844 77.496094 46.398438 77.105469 46.859375 C 76.789062 47.226562 76.460938 47.582031 76.132812 47.9375 C 76.039062 48.039062 76.039062 48.039062 75.945312 48.144531 C 75.796875 48.304688 75.648438 48.464844 75.5 48.625 C 75.417969 48.582031 75.335938 48.542969 75.25 48.5 C 75.359375 48.382812 75.472656 48.265625 75.585938 48.140625 C 75.734375 47.980469 75.886719 47.820312 76.039062 47.65625 C 76.117188 47.570312 76.199219 47.488281 76.28125 47.398438 C 76.769531 46.875 77.257812 46.34375 77.742188 45.8125 C 78.167969 45.347656 78.597656 44.898438 79.046875 44.457031 C 79.355469 44.140625 79.640625 43.808594 79.929688 43.476562 C 80.109375 43.265625 80.300781 43.070312 80.5 42.875 Z M 80.5 42.875 "/>
<path style=" stroke:none;fill-rule:nonzero;fill:rgb(95.294118%,93.725491%,90.980393%);fill-opacity:1;" d="M 86.625 36.875 C 86.625 37.359375 86.433594 37.488281 86.105469 37.816406 C 86.027344 37.890625 85.953125 37.964844 85.875 38.039062 C 85.800781 38.117188 85.722656 38.191406 85.644531 38.269531 C 85.484375 38.429688 85.320312 38.59375 85.15625 38.753906 C 84.90625 39 84.660156 39.246094 84.414062 39.492188 C 84.253906 39.648438 84.097656 39.804688 83.9375 39.960938 C 83.867188 40.035156 83.792969 40.109375 83.714844 40.183594 C 83.367188 40.523438 83.027344 40.847656 82.625 41.125 C 82.542969 41.082031 82.460938 41.042969 82.375 41 C 83.949219 39.402344 83.949219 39.402344 84.726562 38.746094 C 85.386719 38.152344 86 37.507812 86.625 36.875 Z M 86.625 36.875 "/>
<path style=" stroke:none;fill-rule:nonzero;fill:rgb(15.294118%,34.509805%,52.156866%);fill-opacity:1;" d="M 91.625 53.875 C 91.707031 53.917969 91.789062 53.957031 91.875 54 C 91.804688 54.070312 91.734375 54.140625 91.660156 54.210938 C 91.117188 54.75 90.59375 55.292969 90.097656 55.875 C 89.710938 56.3125 89.292969 56.71875 88.875 57.125 C 88.832031 57 88.792969 56.878906 88.75 56.75 C 89.699219 55.800781 90.648438 54.851562 91.625 53.875 Z M 91.625 53.875 "/>
<path style=" stroke:none;fill-rule:nonzero;fill:rgb(95.686275%,93.725491%,90.588236%);fill-opacity:1;" d="M 89.125 34.5 C 89.207031 34.542969 89.289062 34.582031 89.375 34.625 C 89.054688 34.953125 88.734375 35.28125 88.414062 35.609375 C 88.277344 35.75 88.277344 35.75 88.140625 35.890625 C 88.050781 35.980469 87.964844 36.070312 87.875 36.164062 C 87.792969 36.246094 87.710938 36.328125 87.628906 36.414062 C 87.351562 36.644531 87.09375 36.757812 86.75 36.875 C 86.84375 36.785156 86.9375 36.695312 87.03125 36.601562 C 87.367188 36.269531 87.367188 36.269531 87.601562 35.953125 C 87.917969 35.570312 88.273438 35.265625 88.648438 34.945312 C 88.882812 34.746094 88.882812 34.746094 89.125 34.5 Z M 89.125 34.5 "/>
<path style=" stroke:none;fill-rule:nonzero;fill:rgb(94.509804%,92.941177%,91.37255%);fill-opacity:1;" d="M 82.25 41.125 C 82.292969 41.207031 82.332031 41.289062 82.375 41.375 C 81.910156 41.925781 81.464844 42.449219 80.875 42.875 C 80.792969 42.832031 80.710938 42.792969 80.625 42.75 C 80.796875 42.5625 80.796875 42.5625 81 42.375 C 81.082031 42.375 81.164062 42.375 81.25 42.375 C 81.277344 42.308594 81.300781 42.242188 81.328125 42.171875 C 81.574219 41.75 81.898438 41.460938 82.25 41.125 Z M 82.25 41.125 "/>
<path style=" stroke:none;fill-rule:nonzero;fill:rgb(95.686275%,93.725491%,90.196079%);fill-opacity:1;" d="M 74.625 49.25 C 74.667969 49.332031 74.707031 49.414062 74.75 49.5 C 74.613281 49.667969 74.476562 49.835938 74.335938 50 C 74.21875 50.140625 74.21875 50.140625 74.101562 50.28125 C 73.875 50.5 73.875 50.5 73.5 50.5 C 73.871094 50.085938 74.242188 49.675781 74.625 49.25 Z M 74.625 49.25 "/>
<path style=" stroke:none;fill-rule:nonzero;fill:rgb(23.921569%,40.000001%,55.686277%);fill-opacity:1;" d="M 99.375 46.25 C 99.5 46.292969 99.621094 46.332031 99.75 46.375 C 99.378906 46.703125 99.007812 47.035156 98.625 47.375 C 98.542969 47.332031 98.460938 47.292969 98.375 47.25 C 98.703125 46.921875 99.035156 46.589844 99.375 46.25 Z M 99.375 46.25 "/>
<path style=" stroke:none;fill-rule:nonzero;fill:rgb(94.509804%,94.509804%,92.156863%);fill-opacity:1;" d="M 60.625 70.5 C 60.667969 70.5 60.707031 70.5 60.75 70.5 C 60.828125 71.140625 60.550781 71.585938 60.25 72.125 C 60.167969 72.125 60.085938 72.125 60 72.125 C 60.058594 71.949219 60.113281 71.769531 60.171875 71.59375 C 60.21875 71.445312 60.21875 71.445312 60.269531 71.296875 C 60.367188 71.015625 60.488281 70.761719 60.625 70.5 Z M 60.625 70.5 "/>
<path style=" stroke:none;fill-rule:nonzero;fill:rgb(20.784314%,38.431373%,55.29412%);fill-opacity:1;" d="M 101.625 44.25 C 101.707031 44.292969 101.789062 44.332031 101.875 44.375 C 101.441406 44.746094 101.441406 44.746094 101 45.125 C 100.917969 45.082031 100.835938 45.042969 100.75 45 C 101.039062 44.753906 101.328125 44.503906 101.625 44.25 Z M 101.625 44.25 "/>
</g>
</svg>
